<?xml version="1.0" encoding="UTF-8"?>
<svg width="382.5" height="677.81" version="1.1" viewBox="0 0 382.5 677.8125" xmlns="http://www.w3.org/2000/svg">
 <path d="m188.15 669.05c-0.31641-4.8168-0.33261-10.253-0.036-12.081 0.41992-2.5876-0.40759-5.6811-3.7388-13.976-2.3529-5.8593-4.5426-11.919-4.8658-13.466-0.32328-1.5469-0.95962-3.6562-1.4141-4.6875-1.8232-4.1372-5.8908-14.522-8.8133-22.5-2.8864-7.88-16.861-37.63-25.371-54.011-2.0625-3.9702-6.0056-11.583-8.7626-16.916-2.7569-5.3337-5.5603-10.331-6.2298-11.104s-2.6394-3.9375-4.3776-7.0312c-5.2072-9.2682-10.308-17.176-16.255-25.198-3.0938-4.1735-6.1218-8.4379-6.7291-9.4764-0.87883-1.5029-1.1863-1.6013-1.5069-0.48192-0.22155 0.77344-1.0848 3.7266-1.9184 6.5625-0.83356 2.8359-2.3826 10.008-3.4424 15.938-1.0597 5.9297-2.5301 13.312-3.2674 16.406-0.7373 3.0938-1.634 9-1.9926 13.125-1.4188 16.318-4.6213 20.482-14.207 18.472-3.2904-0.69017-5.7994-0.7414-7.3544-0.15019-3.5574 1.3525-4.125 1.1431-5.1911-1.9152-1.264-3.626-2.0675-3.5432-4.547 0.46875-1.1154 1.8047-2.7845 3.2812-3.7093 3.2812-3.0823 0-7.5159-1.1568-7.0878-1.8493 0.82024-1.3272-6.8489-3.1044-10.723-2.485-6.1015 0.97567-13.085-3.6817-11.764-7.8451 0.57126-1.7999 0.44906-1.8851-1.2141-0.84637-2.9447 1.839-7.084-0.47187-10.84-6.0516-1.7876-2.6559-3.5193-5.7566-3.8482-6.8905s-1.8191-3.3689-3.3117-4.9667c-1.8532-1.9839-2.9047-4.3029-3.3159-7.3134-0.33118-2.4246-0.98446-5.8848-1.4517-7.6895-1.476-5.7005-1.0218-10.733 1.2765-14.143l2.1366-3.1704-1.7904-5.5285c-1.7584-5.4298-1.7587-5.605-0.014447-9.8137 2.6992-6.5129 5.3959-7.6291 15.813-6.5454 10.063 1.0469 10.91 0.93907 25.235-3.2134l11.173-3.2387-6.5945-2.5199c-7.0421-2.6909-21.179-6.6791-28.876-8.1465-6.5223-1.2434-9.6173-2.8819-14.766-7.8172-4.2154-4.041-4.4523-4.5325-4.4382-9.2066 0.012479-4.1146 0.47302-5.4572 2.7627-8.0546 1.5113-1.7143 3.7194-4.3472 4.9069-5.8509 1.4537-1.8408 3.011-2.7367 4.7667-2.7424 1.6535-6e-3 2.7994-0.60878 3.1319-1.6491 0.28838-0.90234 0.88905-2.4844 1.3348-3.5156s1.4295-3.3516 2.186-5.1562c0.75654-1.8047 3.4756-5.5334 6.0424-8.2861 4.0698-4.3645 4.9108-4.8743 6.5736-3.9844 2.7577 1.4759 2.9675 1.337 2.9675-1.9644 0-2.3381 0.97574-3.9253 4.5034-7.3256 3.9544-3.8116 5.61-4.6477 13.581-6.8589 10.648-2.9539 12.145-3.0427 15.718-0.93225 2.5217 1.4896 2.7912 1.4896 4.4372 0 2.0509-1.856 7.0443-2.1012 8.435-0.41406 0.5313 0.64453 1.6083 3.6386 2.3933 6.6535 1.6394 6.2962 2.4953 7.6644 2.4953 3.989 0-3.3027 3.4532-11.428 6.5153-15.33 2.1838-2.7829 2.8407-3.0468 7.5833-3.0469 3.3617-2e-5 6.5018 0.6683 8.9062 1.8955 2.7786 1.4182 4.692 1.7493 7.5982 1.3148 4.7054-0.70352 10.647 1.7071 10.647 4.3198 0 3.2626 1.0382 4.8033 2.4482 3.6332 0.88133-0.73145 3.5234-0.86291 8.3161-0.4138 6.5338 0.61226 7.3863 0.9562 12.206 4.9243 2.8501 2.3463 5.4331 5.2667 5.7401 6.4898 1.0637 4.238-2.2267 15.066-6.441 21.196-1.7406 2.5319-1.7402 2.5781 0.0224 2.5781 2.0928 0 7.2106-2.3803 10.412-4.8429 4.7101-3.6226 9.5809-0.68952 11.392 6.8599 0.63901 2.6637 2.1584 6.3115 3.3764 8.1064 2.7216 4.0106 2.7742 5.7873 0.26573 8.9764-1.717 2.1829-1.8708 3.2293-1.2924 8.7983 0.36105 3.4764 1.0704 6.838 1.5763 7.4702s0.76802 3.058 0.5825 5.3906c-0.32497 4.086-0.24273 4.2412 2.2476 4.2412 1.4217 0 2.5849 0.49219 2.5849 1.0938s0.24941 0.84433 0.55426 0.53949c0.59787-0.59787 0.54424-27.072-0.0801-39.498-0.21013-4.1823-0.61792-15.198-0.90621-24.479-0.81039-26.089-2.6281-59.528-3.2379-59.563-3.3505-0.19463-22.955-2.9552-29.078-4.0944-7.0416-1.3103-8.4153-1.3188-12.592-0.0785-2.5785 0.76574-5.4554 1.3922-6.393 1.3922-2.7661 0-1.9505-2.6373 1.342-4.3397 1.6758-0.86645 6.4219-4.1403 10.547-7.2752 4.125-3.1349 7.6396-5.7757 7.8103-5.8684 0.6611-0.35911-2.183-4.7556-5.9744-9.2354-5.3332-6.3016-13.117-22.005-15.653-31.58-1.6184-6.1101-2.067-10.43-2.0748-19.983l-0.01-12.188-3.9009 3.75c-13.097 12.59-22.938 17.49-41.603 20.712-7.2694 1.255-12.312 1.419-27.439 0.89247-19.539-0.68019-22.823-0.27532-28.162 3.4716-4.9332 3.462-3.7607 0.74611 2.2551-5.2236 6.6657-6.6146 8.0184-8.1751 13.552-15.634 10.086-13.594 36.851-31.86 53.808-36.721l7.3637-2.1109-4.2997-3.7871c-2.3648-2.0829-6.8585-5.7655-9.986-8.1835-10.975-8.4853-17.489-16.568-24.118-29.925-6.3841-12.864-6.6383-13.947-7.1174-30.339-0.40049-13.703 0.63673-24.871 2.3099-24.871 1.1108 0 3.0246 3.3667 3.0532 5.3712 0.05211 3.6522 6.1326 13.683 10.197 16.822 3.9968 3.0868 7.4791 4.0494 21.402 5.9165 12.287 1.6476 18.711 4.2527 24.804 10.058 2.9041 2.7672 6.2784 6.913 7.4984 9.2128s2.4513 4.1814 2.7362 4.1814 1.4558-1.793 2.6021-3.9844c2.1078-4.0296 3.4809-6.0912 10.701-16.066 2.1972-3.0358 6.8345-9.5749 10.305-14.531 15.672-22.381 18.115-26.658 19.839-34.723 0.59793-2.7974 1.6035-5.2584 2.2346-5.4688 0.87574-0.29191 1.1475 3.4851 1.1475 15.947 0 14.374 0.33496 18.005 2.7967 30.312 1.5382 7.6904 3.4366 16.289 4.2188 19.109 1.8843 6.7924 1.8992 24.409 0.0259 30.584-1.6507 5.4414-1.6343 5.3162-0.61283 4.6849 0.44197-0.27315 1.348-3.1457 2.0135-6.3834 2.874-13.984 6.7685-27.01 10.729-35.887 2.4576-5.5081 3.8592-8.3079 13.536-27.039 3.4856-6.7468 4.5401-9.65 3.9238-10.802-1.1499-2.1486-11.205-11.43-13.894-12.825-1.8719-0.97115-8.4523-6.6774-27.175-23.565-4.5674-4.1198-7.822-9.0487-12.685-19.21-1.8928-3.9554-3.8769-7.4608-4.409-7.7897-1.313-0.81153-1.2323-4.2374 0.0999-4.2374 1.1338 0 12.476 9.0073 16.871 13.397 6.9161 6.9093 19.081 15.466 24.759 17.414 7.2493 2.4879 23.87 4.2162 32.803 3.4109l6.594-0.59441 1.0668-5.6134c0.61964-3.2605 2.08-6.9418 3.4842-8.7827 1.3296-1.7431 2.4174-3.5618 2.4174-4.0414 0-0.47962 2.4501-3.5359 5.4447-6.7918 5.9449-6.4637 7.6353-6.6987 7.7524-1.0778 0.0397 1.9032 0.57851 5.1407 1.1975 7.1946l1.1255 3.7343 1.6615-2.3281c0.91382-1.2804 3.384-5.2453 5.4892-8.8109 2.1053-3.5655 5.2349-8.3262 6.9547-10.579 5.0111-6.5649 7.1476-15.394 7.0334-29.066-0.08079-9.6655 0.1309-11.529 1.3099-11.529 0.85895 0 1.4063 0.8747 1.4063 2.2474 0 2.3647 7.177 24.735 8.4526 26.346 0.40823 0.51562 1.2704 4.9957 1.9158 9.9558 0.93874 7.2133 0.93935 10.215 3e-3 15-1.2184 6.2258-6.402 17.693-9.5118 21.042-2.7066 2.9148-2.2101 3.5323 2.3388 2.9088 2.2748-0.3118 7.4453 0.01492 11.49 0.72603 6.9745 1.2262 10.269 1.0634 17.421-0.861 2.718-0.73138 3.6253 0.66352 1.3276 2.0411-0.68777 0.41234-3.4752 4.1247-6.1943 8.2497s-6.0587 8.4739-7.4214 9.6642c-5.9269 5.1771-22.599 11.694-35.289 13.794l-3.7489 0.62039 5.5298 2.2498c3.0414 1.2374 7.5078 3.519 9.9253 5.0703 6.1798 3.9656 18.064 17.346 22.635 25.487 5.0288 8.9541 5.4846 9.4244 13.853 14.295 6.9957 4.0721 11.364 8.3843 12.674 12.51 0.60434 1.9041 0.35532 2.0896-2.8043 2.0896-6.545 0-21.906-6.1141-49.067-19.53-2.7854-1.3758-6.5416-3.878-8.3472-5.5605s-3.3627-2.9481-3.4603-2.8125c-0.85904 1.1937-2.1541 28.119-1.4676 30.512 1.766 6.1576-2.9097 3.6724-6.6736-3.5471-0.67206-1.2891-2.9568-4.875-5.0773-7.9688-6.8857-10.046-6.9396-10.24-6.9537-25.032-8e-3 -7.3733-0.24608-14.274-0.53118-15.336-0.59434-2.2137-9.7575-5.1013-16.188-5.1013-3.304 0-4.163 0.49043-6.9786 3.9844-7.4062 9.1904-16.544 26.052-20.703 38.203-3.119 9.1124-5.8938 27.163-4.3246 28.133 0.61003 0.37703 3.9154 1.1506 7.3453 1.719s8.921 2.0875 12.203 3.3757c8.0715 3.1687 16.188 4.6528 17.128 3.132 1.3785-2.2305 1.9867-13.197 0.99623-17.964-1.4429-6.9449-2.4108-25.895-1.3227-25.895 0.87289 0 2.4097 4.964 3.389 10.947 1.0421 6.3665 4.7122 11.874 14.421 21.642l9.7902 9.8497 4.8217-1.0791c2.6519-0.59347 6.0513-1.717 7.5542-2.4967 4.0632-2.108 5.3415-0.22185 2.125 3.1355-1.3888 1.4496-2.5251 3.0745-2.5251 3.6109s-0.84375 1.7389-1.875 2.6721c-2.3857 2.159-2.3726 2.2615 0.71769 5.625 6.034 6.5676 11.381 13.371 13.201 16.798 2.8646 5.3928 4.1923 13.181 3.6356 21.326l-0.49119 7.1861 5.6287-4.3736c7.897-6.136 12.139-8.6224 21.798-12.776 4.192-1.8028 14.196-2.9994 34.802-4.1628 16.481-0.93049 19.561-1.9559 27.966-9.3105 4.9482-4.3301 8.055-5.964 8.055-4.2363 0 0.33361-1.411 2.3375-3.1355 4.4531-4.3937 5.3901-5.0399 6.834-7.6897 17.183-4.0306 15.742-13.625 32.514-21.088 36.865-5.3136 3.0978-19.469 7.7207-29.962 9.7853-5.8042 1.142-11.562 1.484-21.197 1.2592l-13.228-0.30866 4.595 5.1523c4.0837 4.579 11.728 18.433 14.744 26.723 4.2444 11.664 5.2282 17.818 5.1207 32.037-0.0592 7.8234-0.61015 16.894-1.2245 20.156-1.3538 7.19-1.7085 16.29-0.76646 19.662 0.5312 1.9017 0.31579 2.6251-0.92323 3.1005-0.90196 0.34611-1.7742 0.14569-1.974-0.45357-1.1713-3.514-9.7909-14.439-13.755-17.435-17.13-12.944-25.543-26.05-29.11-45.348l-1.6463-8.9062-1.6926 9.8438c-0.93092 5.4141-2.102 10.688-2.6025 11.719s-1.1718 2.9297-1.4919 4.2188c-0.32009 1.2891-1.135 3.8203-1.8109 5.625-0.67591 1.8047-1.7489 4.9688-2.3844 7.0312-2.2593 7.3324-8.7431 16.747-17.288 25.102-9.2743 9.0683-14.153 15.579-12.736 16.996 0.56449 0.56449 2.363-0.57502 4.8973-3.1028 6.2315-6.2156 8.4795-7.1171 17.745-7.1157 4.4633 6.4e-4 7.9304-0.29785 7.7045-0.66332-0.22588-0.36547 0.64141-1.3538 1.9273-2.1964 2.7277-1.7872 5.8696-1.0497 13.414 3.1488 5.966 3.3202 7.9968 4.8785 9.8236 7.5383l1.5154 2.2064 2.0767-2.3884c3.1957-3.6754 8.4014-5.3056 16.942-5.3056 7.4069 0 7.6475 0.0727 10.856 3.2812 2.3487 2.3487 4.1206 3.2852 6.2344 3.2951 4.3928 0.0206 14.968 2.7029 15.796 4.0066 1.8835 2.9638-0.65815 11.19-4.3562 14.1-0.54285 0.42709 0.27864 0.50245 1.8255 0.16749 9.3847-2.0322 12.149-1.2931 17.51 4.681 13.317 14.841 15.611 34.332 4.8268 41.015-4.1519 2.5731-12.594 5.6453-19.994 7.2757-2.8359 0.62489-7.5832 2.202-10.549 3.5048l-5.3932 2.3687 6.1885 2.0826c5.3003 1.7837 7.2563 3.1444 13.628 9.4802 4.0917 4.0687 7.8408 8.3579 8.3314 9.5316 0.67721 1.62 0.30531 3.5998-1.544 8.2194-1.4724 3.6781-2.246 7.08-1.9555 8.5998 0.6062 3.1711-0.7387 6.8281-2.5111 6.8281-0.74345 0-3.2852 0.82876-5.6482 1.8417-3.8517 1.651-4.2979 2.1605-4.3103 4.9219-0.0298 6.6494-5.0329 11.344-13.301 12.481-5.2869 0.72713-6.6928 1.6637-7.7661 5.1739-2.6716 8.7367-10.475 7.1259-24.006-4.9554-8.5795-7.6604-12.733-13.459-15.752-21.991-2.4557-6.9401-8.286-19.972-8.9352-19.972-0.55277 0-9.6082 14.341-18.056 28.594-7.2322 12.203-20.921 40.732-20.921 43.602 0 0.54358-0.90146 3.6117-2.0032 6.8181-1.1018 3.2064-2.547 8.1501-3.2115 10.986-0.66452 2.8359-1.8825 7.5701-2.7066 10.52-2.2796 8.161-2.3234 25.251-0.17024 66.355 0.0792 1.5129-0.37573 2.3438-1.2835 2.3438-1.8118 0-2.6584-12.091-3.0195-43.125-0.25686-22.077-0.21272-22.682 2.3491-32.175 1.436-5.321 2.9996-10.384 3.4748-11.25 1.1142-2.032 7.5081-18.483 7.5081-19.318 0-0.34932 2.26-5.3595 5.0223-11.134 2.7622-5.7742 5.188-10.926 5.3906-11.449 1.4527-3.7484 13.337-24.726 17.254-30.456 2.6436-3.8672 5.7684-8.7188 6.944-10.781 1.8724-3.2849 1.3596-2.9361-4.1348 2.8125-3.4498 3.6094-7.183 7.8681-8.296 9.4639s-3.8418 5.3927-6.0641 8.4375c-6.0553 8.2967-12.083 17.979-15.12 24.286-7.5683 15.719-10.37 22.208-12.222 28.303-1.1161 3.6744-2.8437 7.4179-3.8392 8.3188-1.7564 1.5895-1.8099 1.5382-1.8099-1.7332 0-1.8542-0.3742-3.6025-0.83156-3.8852-0.45736-0.28267-1.1183-6.5302-1.4687-13.883-0.75182-15.775-3.142-53.98-3.7802-60.424-0.24555-2.4792-0.88552-16.742-1.4222-31.695-0.53664-14.953-1.173-30.141-1.4142-33.75-0.24115-3.6094-0.89013-16.477-1.4422-28.594-0.55203-12.117-1.4075-27.727-1.9011-34.688-0.49355-6.9609-1.1636-18.457-1.489-25.547-0.56414-12.292-0.68313-12.89-2.5619-12.876-4.4185 0.0322-4.6531 0.84792-3.9478 13.725 1.3817 25.228 2.796 67.224 2.9313 87.042 0.15949 23.362 1.0515 47.618 2.3099 62.812 0.46975 5.6719 1.093 19.172 1.3849 30 1.0503 38.952 2.9041 83.845 3.7216 90.124 0.34612 2.6583-0.74912 5.0325-2.3215 5.0325-0.33418 0-1.3478-1.793-2.2525-3.9844-0.90467-2.1914-2.0301-4.7277-2.501-5.6362s-1.5304-3.6507-2.3545-6.0938c-0.82406-2.4431-3.5595-8.1876-6.0788-12.766s-4.5806-8.5035-4.5806-8.7233c0-1.0831-4.3021-9.6141-8.0173-15.898-2.2936-3.8795-4.1756-7.3352-4.1821-7.6793-0.0145-0.76834-4.3346-9.2914-7.9201-15.626-1.4593-2.5781-3.928-7.0078-5.486-9.8438-1.558-2.8359-3.7545-6.4219-4.8812-7.9688s-2.3273-3.4453-2.668-4.2188c-0.34074-0.77344-1.5976-3.0938-2.7931-5.1562s-3.77-6.6698-5.7212-10.239c-4.5603-8.3408-10.681-18.415-12.322-20.282-0.70511-0.80216-3.4514-5.0209-6.1028-9.375-4.6635-7.6583-4.8509-8.2376-5.7443-17.76-0.64035-6.8252-0.60548-12.657 0.11372-19.018 2.1175-18.728 0.81942-37.025-3.173-44.725-0.94984-1.8318-1.895-6.1675-2.146-9.8438-0.48562-7.1142 0.4152-8.0573 1.2694-1.329 0.62944 4.958 2.1698 10.257 3.4508 11.871 1.5565 1.9609 3.4429 12.493 3.484 19.451 0.0352 5.9722 0.14829 6.3517 1.2569 4.2188 2.3759-4.5712 7.1331-21.182 7.7861-27.188 0.36446-3.3516 0.82554-5.6112 1.0246-5.0214 0.20159 0.59721 1.2767 0.84354 2.4264 0.55595 1.958-0.48979 1.9841-0.42424 0.50579 1.2714-0.85724 0.98328-2.42 5.3737-3.4729 9.7566s-3.004 11.133-4.3358 15c-4.6696 13.559-5.1515 15.717-5.9835 26.799-0.7809 10.402-0.18012 15.749 1.1666 10.384 0.61529-2.4515 12.489-28.539 13.724-30.151 1.0548-1.3777 4.8885-11.521 9.3896-24.844 3.7624-11.136 6.5472-17.053 5.0743-10.781-1.0078 4.2912-6.49 20.944-8.7304 26.519-1.0955 2.7261-1.9874 5.2574-1.9821 5.625 6e-3 0.36763 4.6503-4.1436 10.322-10.025s10.515-10.491 10.761-10.245c0.64874 0.64875-5.3917 7.4484-14.297 16.093-4.2539 4.1298-7.7344 7.8963-7.7344 8.37 0 0.47372-0.75656 1.5617-1.6812 2.4178-1.4897 1.3792-6.4495 11.35-12.367 24.863-2.2889 5.2264-1.8916 7.0303 0.51272 2.3278 0.88132-1.7237 5.0257-7.4252 9.2098-12.67 4.184-5.2448 9.0839-11.686 10.889-14.315 4.2929-6.2518 7.313-10.023 10.868-13.569 4.5853-4.5751 9.841-15.048 10.434-20.79 0.50489-4.8919 0.44475-5.051-2.5258-6.6818-1.6736-0.91879-4.7899-2.823-6.9249-4.2316-2.8407-1.8741-5.0764-2.5656-8.335-2.5781-4.2596-0.0163-4.4531 0.0974-4.4531 2.6163 0 3.3562-2.095 6.2801-3.9811 5.5563-1.0096-0.38743-1.6393-2.5393-2.1076-7.2025-0.78255-7.7923-2.0492-8.9761-8.7912-8.2162-3.339 0.37635-5.2806-0.0166-8.7378-1.7686-2.4447-1.2388-5.4439-2.2524-6.6649-2.2524-3.7248 0-8.8516 7.1959-11.881 16.677-1.0469 3.2757-1.0825 5.6198-0.19263 12.656 0.60071 4.7497 1.3492 11.358 1.6633 14.684 0.31411 3.3267 0.91591 6.9554 1.3373 8.0638 0.42142 1.1084 1.4593 7.246 2.3064 13.639 2.0862 15.745 3.8409 22.805 7.2629 29.226 2.5316 4.7498 2.7424 5.6911 1.7075 7.6248-1.5077 2.8172-0.6387 5.6309 3.2114 10.398 5.425 6.7174 25.805 38.646 25.805 40.428 0 0.26619 1.2071 2.2475 2.6825 4.4029s4.0869 6.6611 5.8035 10.013c1.7166 3.3516 4.0954 7.6674 5.2863 9.5908 1.1909 1.9233 2.1652 3.9198 2.1652 4.4366s1.756 3.7947 3.9022 7.2843c4.0011 6.5054 11.098 21.09 11.098 22.807 0 0.52778 1.2233 3.5787 2.7185 6.7799 5.2355 11.209 13.012 30.254 15.009 36.758 5.282 17.201 6.7066 21.094 7.719 21.094 0.86899 0 1.6473 6.9981 2.3198 20.859 0.49226 10.146 0.37192 11.953-0.79575 11.953-1.07 0-1.5035-1.9459-1.951-8.7579zm-0.64814-84.235c-0.62932-15.628-1.6243-39.172-2.2112-52.32l-1.067-23.906-5.2623 0.31267c-4.4162 0.26238-6.225-0.16848-11.25-2.6799-7.5177-3.7572-10.206-6.2046-10.206-9.2901 0-2.2999 3.4045-6.9775 5.6147-7.7142 0.63935-0.21312 0.0457-2.3702-1.5726-5.7143-2.9471-6.0898-2.7538-6.0631-11.938-1.6486l-5.5523 2.6688-7.0283-1.7975c-3.9172-1.0018-8.3067-2.838-9.9164-4.148-7.1262-5.7994-8.6855-6.8007-11.37-7.3016-4.906-0.91542-5.4118 0.29279-2.4965 5.9636 3.3381 6.4931 9.5658 16.254 10.631 16.662 0.44897 0.17188 0.8241 0.80469 0.83364 1.4062 0.01 0.60156 3.1472 6.1562 6.9725 12.344 5.988 9.6855 14.9 25.422 28.807 50.869 3.6821 6.737 6.6186 12.611 19.405 38.814 4.4437 9.1069 8.2307 16.409 8.4156 16.226 0.18489-0.18244-0.17873-13.118-0.80805-28.746zm20.394-22.97c1.1602-1.6066 2.1094-3.5174 2.1094-4.2462 0-1.8535 12.447-26.327 16.669-32.774 3.3669-5.1419 11.242-15.014 16.758-21.009 1.4667-1.5939 3.4536-3.7901 4.4152-4.8804l1.7484-1.9824-3.6234 0.51065c-1.9929 0.28086-5.7328 1.0689-8.3109 1.7512-2.5781 0.68233-7.0078 1.512-9.8438 1.8437-6.5494 0.76599-13.615 2.0222-22.389 3.9804l-6.9207 1.5446 0.60545 11.784c1.303 25.362 2.6258 40.953 3.9228 46.237 0.0949 0.38672 0.26674 2.2852 0.38182 4.2188l0.20922 3.5156 1.0798-3.7862c0.59391-2.0824 2.029-5.1006 3.1892-6.7072zm93.207-13.089c1.0229-0.92568 1.7144-2.842 1.7144-4.7507 0-2.6403-0.2914-3.1066-1.6682-2.6696-1.1967 0.37982-3.4032-1.2584-7.807-5.7962-6.6057-6.8068-8.0846-8.8763-12.595-17.624-7.2272-14.018-13.156-20.108-19.573-20.108h-3.3744l4.6082 9.1829c2.5345 5.0506 5.0752 10.917 5.6459 13.037 2.3076 8.5697 13.996 21.871 24.491 27.87 4.9169 2.8104 6.2535 2.9446 8.5577 0.85934zm-244.24-5.4762c1.5843-3.8525 3.1397-5.511 3.1397-3.348 0 0.48088 0.87107 1.1508 1.9357 1.4887 1.0646 0.3379 2.2652 1.5052 2.668 2.5939 0.62788 1.6973 1.3877 1.9448 5.3299 1.7358 2.5287-0.13406 5.6523 0.15289 6.9414 0.63768 5.3942 2.0286 9.357-3.2655 9.3698-12.518 0.0029-2.0796 1.4451-10.939 3.205-19.688 1.7599-8.7486 3.4582-18.093 3.774-20.766 0.31578-2.6725 1.3587-7.3131 2.3175-10.312 0.95886-2.9994 1.6052-5.6049 1.4363-5.7901-0.16891-0.18515-1.6087 0.59015-3.1995 1.7229-4.6824 3.3341-7.0491 9.1644-11.425 28.145-2.911 12.626-9.4017 29.062-11.477 29.062-0.48668 0-1.6564 0.69819-2.5993 1.5516-2.8528 2.5818-1.9653-0.26054 1.6547-5.2994 3.5887-4.9952 3.566-5.5914-0.12093-3.1756-3.6765 2.4089-2.7084 0.79187 2.7301-4.5605 4.3706-4.3013 5.1957-5.7064 6.2055-10.567 4.5002-21.662 9.2809-33.459 15.284-37.715 1.6362-1.1602 2.4833-2.1094 1.8825-2.1094-1.8918 0-18.753 8.1535-23.449 11.339-4.4946 3.0491-20.034 16.512-28.87 25.011-2.5781 2.48-6.2826 5.5462-8.2322 6.8138-1.9598 1.2742-4.4444 4.0862-5.5568 6.289-1.8517 3.6668-4.491 5.8023-3.1863 2.5781 1.8879-4.6653 1.8961-4.4932-0.16319-3.3911-4.2477 2.2733-6.7681 2.9175-6.758 1.7273 0.0053-0.63177 2.6083-2.3581 5.7843-3.8363 7.6638-3.5669 11.564-6.4783 23.169-17.294 5.3591-4.9947 10.633-9.671 11.719-10.392 1.0862-0.72074 3.6624-2.9018 5.7249-4.8469s7.5276-5.4686 12.145-7.8302c9.8093-5.0173 9.0463-5.8241-0.9575-1.0125-3.7521 1.8047-7.3939 3.2812-8.0929 3.2812-0.69899 0-2.103 0.55771-3.1201 1.2394-1.0171 0.68164-3.3258 1.803-5.1305 2.4918-1.8047 0.68884-5.1797 2.0526-7.5 3.0306-11.198 4.72-12.269 5.1026-20.423 7.303-4.7206 1.2738-7.4234 2.4539-7.1693 3.1305 0.22431 0.5973-0.91559 1.8374-2.5331 2.7559-3.3637 1.91-4.4263 1.6096-2.1959-0.62078 1.3988-1.3988 1.2228-1.5179-2.2438-1.5179-2.0689 0-4.0631-0.48772-4.4315-1.0838-0.47364-0.76637 0.12916-0.92404 2.058-0.53828 1.7773 0.35545 5.5033-0.40805 10.693-2.1911 4.3807-1.5051 8.6709-2.7395 9.5339-2.743 1.4165-6e-3 23.087-9.0151 24.212-10.066 0.25781-0.24084-2.2734-0.18315-5.625 0.12817-3.3516 0.31134-11.051 0.7888-17.109 1.061-9.7899 0.4399-11.016 0.32373-11.016-1.044 0-1.1924 0.58058-1.4103 2.5781-0.96751 2.5713 0.56994 2.5705 0.56712-0.31594-1.0702-3.5068-1.9893-7.8872-5.4491-7.8872-6.2297 0-1.2932 2.6459-0.4312 4.3056 1.4028 1.9648 2.1711 5.9964 4.4571 9.7021 5.5013 1.3192 0.37172 7.672 0.32968 14.117-0.0935 9.2683-0.60843 13.483-1.3749 20.156-3.6654 4.6406-1.5928 12.023-3.8504 16.406-5.0168l7.9688-2.1207-5.9285-0.54914c-4.329-0.40099-8.0326-1.6012-13.727-4.4486-4.4832-2.2416-10.363-4.3387-13.83-4.9325-5.5523-0.95107-6.6945-0.82929-14.398 1.5351-4.6017 1.4125-10.197 3.2222-12.434 4.0216-4.0049 1.4312-5.4025 1.4121-18.598-0.25296-4.0834-0.51526-5.3047-0.29095-7.6992 1.414-3.3955 2.4178-4.4423 6.5943-2.9976 11.959 0.98348 3.6524 3.7301 5.9271 7.1567 5.9271 2.8984 0 1.1756 1.7417-2.3044 2.3296-5.8879 0.99476-7.0315 2.9896-6.3182 11.022 0.73288 8.2529 3.3029 16.784 5.9262 19.672 1.0656 1.173 2.223 3.338 2.5721 4.811 0.34912 1.473 2.4084 4.5519 4.5762 6.8421l3.9414 4.1639 4.0549-1.4347 4.0549-1.4347-0.27161 3.7618c-0.23888 3.3084 0.06335 3.9604 2.5076 5.4094 2.2964 1.3613 5.2996 1.7168 9.9695 1.18 0.34528-0.0397 1.3155-2.1425 2.1559-4.673 1.5576-4.6895 3.1709-6.8166 8.9547-11.807 1.7939-1.5478 4.5272-5.3447 6.0741-8.4375 2.751-5.5003 3.9062-6.9862 5.4538-7.0152 2.4709-0.0463-5.4294 13.394-10.603 18.038-3.2681 2.9339-8.4443 11.411-8.4443 13.83 0 1.1001 7.0279 4.5075 9.5165 4.614 0.98103 0.042 2.1825-1.4772 3.2812-4.149zm257.79-3.7366c2.5731-0.76413 5.6588-2.433 6.8572-3.7086 1.9864-2.1145 2.0889-2.6737 1.1603-6.3321-1.1906-4.6906-1.0388-4.8422 7.8007-7.7887 5.4954-1.8318 5.6192-1.9478 5.3717-5.0353-0.14157-1.7662 0.81429-5.8289 2.1668-9.2097 2.8041-7.0091 3.3383-5.7771-7.0697-16.304-5.6412-5.7056-7.9213-7.3541-11.533-8.3387-6.602-1.7996-18.511-0.67987-34.404 3.2348-19.157 4.7185-20.608 5.1489-20.766 6.1593-0.46392 2.9687-0.19985 3.0858 6.4688 2.8695 4.3289-0.1404 6.7969 0.14281 6.7969 0.77996 0 0.5717-2.1092 1.0346-4.9219 1.0802l-4.9219 0.0798 6.0938 1.5983c10.626 2.787 15.666 5.9291 26.891 16.763 3.1406 3.0313 4.8654 3.9156 8.6537 4.4366 2.6022 0.3579 6.427 0.36423 8.4995 0.0141 2.403-0.40598 3.7682-0.28142 3.7682 0.34385 0 0.57439-3.0091 1.0939-7.2656 1.2543l-7.2656 0.2738 5.1562 2.0605c3.6497 1.4585 4.4715 2.0633 2.8125 2.0701-3.5732 0.0145-7.4198-2.4546-17.294-11.101-4.9669-4.3494-10.385-8.7424-12.04-9.7622-2.4348-1.5001-14.755-6.236-16.222-6.236-0.20729 0 1.1169 1.582 2.9426 3.5156 3.138 3.3234 5.412 6.93 11.97 18.984 4.0367 7.4204 14.16 18.539 17.316 19.019 5.2771 0.80297 8.4387 0.62737 12.979-0.72084zm-21.186-7.9491c-0.7585-0.47969-1.1804-1.0688-0.9375-1.3091 0.72518-0.71753 5.5978 0.48524 5.5978 1.3818 0 1.0836-2.9036 1.0383-4.6604-0.0726zm24.817-5.6616c-0.31867-0.51563-0.13264-0.9375 0.41342-0.9375s0.99283 0.42187 0.99283 0.9375c0 0.51562-0.18604 0.9375-0.41342 0.9375s-0.67416-0.42188-0.99283-0.9375zm0.97754-20.56c-0.64039-1.0362 0.8385-2.155 1.7042-1.2893 0.89136 0.89137 0.72524 2.162-0.28266 2.162-0.48519 0-1.1249-0.39273-1.4215-0.87272zm-7.54-3.9049c-2.0625-0.46163-4.6992-1.0601-5.8594-1.3299-1.1602-0.26985-2.1094-0.92937-2.1094-1.4656s0.44169-0.70198 0.98153-0.36834c2.4125 1.491 16.07 2.9462 20.733 2.209 5.539-0.87559 6.9766-0.41767 3.1984 1.0188-3.0111 1.1448-11.69 1.1121-16.944-0.0639zm-14.531-3.2422c-0.77344-0.16627-3.832-0.56957-6.7969-0.89621-2.9648-0.32664-5.3906-0.90185-5.3906-1.2782 0-0.37638 2.8477-0.36769 6.3281 0.0193 3.4805 0.387 6.8555 0.7253 7.5 0.75178 0.64454 0.0264 1.1719 0.47002 1.1719 0.98564 0 0.94171-0.22172 0.97464-2.8125 0.41769zm-17.56-2.0049c0.91215-0.23769 2.1778-0.22206 2.8125 0.0348 0.63471 0.25681-0.1116 0.45129-1.6585 0.43218-1.5469-0.0191-2.0662-0.22922-1.154-0.46691zm-95.357 9.6598c0.0284-0.0572-0.28144-6.8539-0.68861-15.104s-0.85232-18.164-0.9892-22.031c-0.13689-3.8672-0.67077-7.3412-1.1864-7.72-1.775-1.3041-6.0972-0.71399-7.8882 1.077-1.4812 1.4812-1.6549 2.4131-0.99504 5.3389 0.98289 4.358 0.5146 5.2248-2.4242 4.4872-1.4777-0.37088-2.2863-0.17355-2.2863 0.55792 0 0.62246-1.2953 2.3418-2.8785 3.8207-3.1471 2.9398-3.2418 2.1944 1.2968 10.2 1.333 2.3513 1.4598 3.2866 0.58833 4.3368-0.61116 0.73641-1.5537 1.3389-2.0944 1.3389-1.6542 0-4.4122 3.0028-4.4122 4.804 0 1.9517 9.2096 8.254 13.594 9.3024 2.1518 0.51459 10.06 0.20271 10.364-0.40875zm-7.083-11.63c-1.2891-0.1931-2.7656-0.78169-3.2812-1.308-0.63634-0.64949 0.11658-0.73939 2.3438-0.27986 4.8199 0.99451 5.5809 2.2834 0.9375 1.5878zm-1.1702-16.919c-2.7659-1.6692-3.3492-2.9612-1.337-2.9612 0.68355 0 2.2336 1.0547 3.4447 2.3438 2.4998 2.6609 1.6774 2.9018-2.1077 0.61741zm48.045 20.922c7.4766-1.2678 16.547-2.6544 20.156-3.0813l6.5625-0.77618-6.0938-0.69838c-5.6291-0.64514-31.444 0.53776-41.25 1.8902-2.8846 0.39782-3.9223 0.27663-3.2812-0.38323 0.51562-0.53078 3.0469-1.1983 5.625-1.4834 10.601-1.1723 35.851-2.511 38.906-2.0627 3.2401 0.47543 3.2284 0.45718-0.9375-1.4553-2.3804-1.0928-9.6784-2.7234-16.748-3.7419-6.8909-0.9928-13.219-2.2082-14.062-2.7008-2.138-1.2487-1.0306-1.2051 13.361 0.52567 8.067 0.97017 14.164 2.258 17.736 3.7462 6.4736 2.6969 6.2278 1.9245-1.1805-3.7096-7.0308-5.3469-16.16-10.06-26.294-13.574-4.3828-1.52-10.614-3.7089-13.847-4.8643-3.2331-1.1554-6.1432-1.8359-6.467-1.5121-0.32376 0.32377-0.10307 7.241 0.49043 15.372 0.59348 8.1307 1.0778 16.941 1.0764 19.579l-3e-3 4.796 6.3281-1.7799c3.4805-0.97895 12.445-2.8172 19.922-4.085zm-18.516-15.195c-2.1914-0.19737-3.9844-0.81167-3.9844-1.3651 0-0.6411 1.2758-0.79538 3.5156-0.42516 1.9336 0.3196 4.043 0.58574 4.6875 0.59141 0.64454 6e-3 1.1719 0.43219 1.1719 0.94782 0 0.51562-0.31641 0.86379-0.70313 0.77371-0.38671-0.0901-2.4961-0.32528-4.6875-0.52266zm53.844 5.1982c-0.29927-0.74787-0.52142-0.52573-0.5664 0.56641-0.0407 0.98827 0.18087 1.542 0.49239 1.2305 0.31152-0.31153 0.34482-1.1201 0.074-1.7969zm-6.3726-7.4952c-0.9723-3.7034-1.7821-7.3948-1.7996-8.2031-0.0175-0.80831-0.84693-3.1572-1.8432-5.2196s-1.8257-4.6718-1.8432-5.7983c-0.0175-1.1266-0.4786-3.2235-1.0247-4.6598s-1.7855-6.4208-2.7542-11.077c-0.96876-4.6559-2.1856-10.153-2.7041-12.215-0.5185-2.0625-1.1856-4.9102-1.4824-6.3281-0.29681-1.418-1.0318-2.5781-1.6332-2.5781-1.5553 0-5.4332-3.8301-5.4332-5.3662 0-0.70916-0.64365-2.5341-1.4303-4.0553-0.84178-1.6278-1.0284-2.7659-0.45359-2.7659 0.53721 0 1.6915 1.582 2.5652 3.5156 4.0953 9.0641 6.2668 8.8806 5.5477-0.46875-0.30737-3.9961-0.21187-7.8186 0.21223-8.4944 0.44571-0.71027 1.0389 3.51 1.4058 10.001 0.34907 6.1766 1.0838 12.636 1.6327 14.354 0.5489 1.7179 1.2 3.7563 1.4468 4.5298 0.53859 1.6875 3.7324-7.2551 4.6079-12.902 0.34074-2.1977 1.0496-4.2617 1.5753-4.5866 1.3412-0.8289 0.039 7.281-2.2205 13.829-0.99572 2.8857-1.846 6.6826-1.8896 8.4375-0.10214 4.1181 3.6462 22.083 5.3276 25.534 0.7116 1.4606 2.2374 6.8395 3.3906 11.953 1.1532 5.1137 2.4169 9.2976 2.8081 9.2976s1.1438-1.582 1.6725-3.5156c0.52865-1.9336 1.602-5.8129 2.3852-8.6206 3.5228-12.629 4.0768-44.287 0.89347-51.053-0.75182-1.5977-2.4183-4.3384-3.7033-6.0905-1.285-1.752-2.3223-3.6505-2.3052-4.2188 0.0305-1.0096 1.8641 0.94852 4.6289 4.9433 2.0361 2.9418 2.8399 2.4443 2.8399-1.7578 0-2.0625 0.40518-3.75 0.9004-3.75 0.51718 0 0.69413 1.8953 0.41574 4.4531-0.66588 6.1183-0.70061 5.2984 0.65443 15.454 1.4732 11.042-7e-3 32.899-2.932 43.308-1.0043 3.5733-1.6597 6.6632-1.4565 6.8664 0.20321 0.20321 1.0398-1.9364 1.8591-4.7547 0.81931-2.8183 2.5408-6.9629 3.8254-9.2102 1.2847-2.2473 2.3409-4.8335 2.3471-5.7472 7e-3 -0.91366 1.3094-4.4996 2.8959-7.9688 3.3937-7.4208 6.4827-23.642 6.468-33.964-0.0147-10.261-2.2007-19.708-5.0983-22.031-3.9568-3.1731-16.38-9.1306-17.857-8.5637-2.0258 0.77737-1.7126 3.7735 0.61043 5.8402 3.9634 3.5262 7.4742 15.38 4.5551 15.38-0.51563 0-0.9375-1.394-0.9375-3.0977 0-3.9751-4.6325-11.341-8.3375-13.257-3.4748-1.7969-12.236-1.899-16.302-0.18998-4.4351 1.8641-9.0387 6.576-9.7115 9.94-0.5871 2.9355-0.59484 2.9389-2.5721 1.1416-3.0245-2.7493-5.7639-3.912-9.2166-3.912-2.58 0-4.0954 0.96766-8.5245 5.4434-2.9626 2.9939-5.1115 5.7186-4.7752 6.0548s-0.0399 2.2392-0.83594 4.2288c-1.5766 3.9402-0.98793 8.6276 2.9108 23.179 2.9632 11.06 9.5576 21.824 14.708 24.008 1.5469 0.65597 7.7353 3.5453 13.752 6.4207 10.731 5.1285 10.91 5.177 9.375 2.5474-0.86053-1.4744-2.6866-3.2656-4.058-3.9806-1.3714-0.71495-2.637-1.6935-2.8125-2.1746-0.17549-0.48112-5.4497-6.2908-11.721-12.91-13.902-14.675-17.412-19.016-16.758-20.722 0.27667-0.72097 0.50303-2.1201 0.50303-3.1092 0-3.707 1.657-1.6204 2.2474 2.83 0.57052 4.3008 1.3256 5.3778 10.668 15.216 12.509 13.173 32.21 32.999 29.656 29.843-1.0433-1.2891-4.3589-7.1953-7.368-13.125s-5.9747-11.414-6.5903-12.188-2.6784-4.2934-4.584-7.822c-1.9056-3.5287-6.4042-10.664-9.9968-15.856-3.5926-5.1921-6.532-10.004-6.532-10.694 0-2.4398 1.5362-1.2035 3.2053 2.5796 2.5876 5.8648 4.0418 3.3511 2.0885-3.6102-1.9332-6.89-1.9428-8.0264-0.0373-4.4416 0.8222 1.5469 1.8613 5.6488 2.3091 9.1154 0.72155 5.5859 1.724 7.8086 8.8118 19.539 4.3987 7.2797 7.9976 13.449 7.9976 13.709 0 0.26001 0.77009 1.5926 1.7113 2.9612 0.94123 1.3686 2.2943 3.9471 3.0068 5.7299 0.71252 1.7828 2.7292 5.3687 4.4814 7.9688 1.7522 2.6 4.2032 6.7312 5.4465 9.1804s2.4162 4.4531 2.6064 4.4531c0.19017 0-0.44975-3.0301-1.422-6.7335zm15.023-1.704c0.30415-0.25781 2.2396-3 4.301-6.0938s5.5529-8.0255 7.7588-10.96c2.2059-2.934 4.6589-6.9418 5.4512-8.9062 0.79223-1.9644 2.0136-4.8374 2.7142-6.3842 4.3617-9.6309 6.13-16.011 5.953-21.478-0.14597-4.5066 0.33787-6.7958 2.2966-10.866 2.9295-6.0872 3.3491-4.9167 0.67208 1.875-1.9749 5.0104-2.527 12.188-0.9375 12.188 0.51562 0 0.93825-0.31641 0.93918-0.70313 2e-3 -0.76873 7.7196-5.8594 8.8833-5.8594 0.39579 0 0.19443 0.63281-0.44747 1.4062s-1.6913 1.4062-2.3321 1.4062c-2.8449 0-5.9969 4.0883-8.8258 11.447-1.6431 4.2742-4.0188 9.9861-5.2795 12.693-1.2607 2.707-2.0709 4.9219-1.8006 4.9219s1.5446-0.68996 2.8316-1.5332c1.287-0.84329 2.5558-1.3175 2.8196-1.0537 0.26374 0.26374-0.93781 1.3158-2.6701 2.3378-3.6171 2.1342-7.4099 6.6093-15.705 18.53-3.229 4.6406-6.9703 9.8921-8.3139 11.67-2.1708 2.8724-1.7309 2.6635 3.9491-1.875 3.5156-2.8091 7.5234-5.8349 8.9062-6.724 2.9639-1.9056 2.9156-1.8717 13.764-9.6444 4.6406-3.3248 8.7476-6.0536 9.1265-6.064 2.0361-0.0558 22.774-13.569 27.202-17.724 1.9336-1.815 3.5156-2.866 3.5156-2.3356s-1.0648 1.9647-2.3662 3.1873c-1.926 1.8093-2.1142 2.364-1.0118 2.981 0.74495 0.4169 2.5011 0.32205 3.9025-0.21076 1.4014-0.53282 2.759-0.75782 3.0168-0.50001 0.83234 0.83235-4.4954 2.3962-8.1634 2.3962-2.0514 0-4.5109 0.7413-5.7983 1.7476-1.2297 0.96119-6.6655 4.2613-12.08 7.3335-12.718 7.2169-17.083 9.9743-23.682 14.962-2.9706 2.245-5.7128 4.1025-6.0938 4.1278-0.38096 0.0253-2.3802 1.7359-4.4426 3.8013l-3.75 3.7553 3.75-1.572c2.0625-0.86462 4.5641-1.9933 5.5591-2.5082s4.7406-1.9332 8.3235-3.1519c3.5829-1.2186 6.9876-2.5997 7.5659-3.0691 0.57835-0.46936 3.3718-1.4904 6.2078-2.269 2.8359-0.77861 7.0547-2.0884 9.375-2.9106 2.3203-0.82225 8.4996-2.7976 13.732-4.3896l9.513-2.8946 1.5801-4.1375c0.86906-2.2756 1.9456-4.1375 2.3922-4.1375 0.44667 0 0.19518 1.4766-0.55887 3.2812-1.8481 4.4232-0.16182 4.3863 5.0928-0.11142 4.9988-4.2788 5.9501-3.7034 1.2786 0.77331-2.5115 2.4068-6.143 4.2869-12.873 6.6649-12.271 4.3356-27.231 9.0795-28.632 9.0795-1.8735 0-32.125 12.253-35.118 14.224l-2.8125 1.8522 3.75-0.60187c2.0625-0.33102 7.125-1.3895 11.25-2.3522s11.508-2.4738 16.406-3.358c4.8984-0.88422 9.5391-2.1339 10.312-2.777 2.9762-2.4748 25.632-11.796 36.555-15.04 8.7849-2.6088 11.588-10.601 7.6441-21.799-2.6044-7.3955-8.286-15.425-13.046-18.436l-4.1623-2.6333-7.132 1.6814c-5.1297 1.2093-7.8694 2.4188-9.7586 4.308-2.812 2.812-6.3504 4.4115-6.3504 2.8706 0-0.51585 1.9846-2.5482 4.4102-4.5163 6.0881-4.9398 9.2597-8.5732 11.197-12.826 1.593-3.4982 1.5887-3.6678-0.12638-4.9219-0.97694-0.71436-3.3967-1.2988-5.3772-1.2988s-5.0375-0.60023-6.7933-1.3339c-1.7558-0.73361-4.0318-1.1144-5.0577-0.84606-1.2968 0.33914-2.6882-0.43321-4.5656-2.5344-1.8268-2.0445-3.896-3.2178-6.3966-3.6268-5.5735-0.91178-13.199 0.22116-16.115 2.3941-2.4474 1.824-2.5911 2.3559-2.7738 10.263-0.15373 6.6536 0.0174 7.9133 0.84639 6.2304 0.98652-2.0027 2.6638-2.9114 2.5957-1.4062-0.0175 0.38672-0.84693 2.3906-1.8432 4.4531s-1.8257 5.0496-1.8432 6.638c-0.0671 6.0946-3.6931 22.819-6.0774 28.032-1.3722 3-2.7476 6.7624-3.0563 8.3609-0.30875 1.5986-1.9731 5.6978-3.6985 9.1095s-3.1521 6.9976-3.1703 7.9688c-0.0183 0.97115-0.63613 2.8204-1.373 4.1095-2.395 4.1896-1.4804 4.1346 1.5564-0.0937 1.6294-2.2688 3.2115-4.336 3.5156-4.5938zm27.484-29.6c0.89007-0.93188 1.8754-1.4372 2.1897-1.123s-0.41399 1.0767-1.6183 1.6943c-2.0933 1.0736-2.1184 1.0484-0.57137-0.57136zm4.4754-2.1957c0-0.48957 0.83518-1.1552 1.856-1.4792 1.0208-0.32398 1.7763-0.87976 1.679-1.2351-0.23561-0.85992 4.744-16.216 5.8263-17.967 1.5342-2.4824 1.748-0.56569 0.3635 3.2589-0.74661 2.0625-2.1379 6.1652-3.0917 9.1171l-1.7342 5.3671 2.0037-1.0645c1.1021-0.58549 3.5944-2.1132 5.5384-3.3949 1.9441-1.2817 3.7456-2.1194 4.0034-1.8616s-1.1429 1.5353-3.1126 2.8388c-5.5126 3.648-13.332 7.4139-13.332 6.4208zm7.0312-27.266c0.31867-0.51563 1.2928-0.93104 2.1647-0.92315 1.3662 0.0124 1.3909 0.13996 0.17904 0.92315-1.836 1.1865-3.077 1.1865-2.3438 0zm-160.51 59.992c1.7552-1.0356 5.2909-2.5064 7.8571-3.2685 3.1059-0.92234 5.0733-2.1471 5.8847-3.6631 0.6704-1.2526 2.0104-2.4845 2.9778-2.7375 1.0625-0.27784 1.7588-1.2948 1.7588-2.5686 0-2.0189 3.1066-6.7985 6.8554-10.547 1.3445-1.3445 1.636-2.5826 1.2217-5.1895-0.29922-1.8831-0.81732-6.166-1.1513-9.5175-0.66896-6.7127-1.5493-8.4375-4.3062-8.4375-2.7536 0-1.4824-2.2684 1.5763-2.8125 3.4028-0.60536 5.0868-3.1188 3.6409-5.4342-0.58071-0.92985-1.5954-4.2008-2.2548-7.2689-0.65946-3.068-1.8287-6.3165-2.5983-7.2189-1.664-1.951-4.6054-2.1247-6.6598-0.39325-1.5142 1.2761-8.043 3.7857-12.286 4.7227-3.231 0.71348-9.4078 6.1618-13.706 12.089-1.9578 2.7001-5.9879 7.8623-8.9559 11.472-2.968 3.6094-6.4765 7.9044-7.7966 9.5444-1.3202 1.6401-3.8966 5.8527-5.7255 9.3614l-3.3252 6.3795 5.0015-4.8529c4.713-4.5731 14.202-11.526 15.73-11.526 2.4179 0 16.182-11.27 25.042-20.506 10.706-11.159 15.213-14.196 6.7519-4.5503-3.1039 3.5385-4.2033 5.3686-3.2252 5.3686 0.81615 0 1.4839 0.42187 1.4839 0.9375 0 0.51562-0.81885 0.9375-1.8197 0.9375s-2.0847 0.42876-2.4085 0.95279-0.91302 0.75245-1.3092 0.50758c-0.3962-0.24486-2.371 1.2603-4.3883 3.3448-4.5058 4.6558-14.28 12.464-16.71 13.349-5.9281 2.1595-23.052 15.886-23.052 18.479 0 0.45996 1.3711 0.25047 3.0469-0.46555 1.6758-0.71601 7.4766-1.7903 12.891-2.3873s13.078-1.9028 17.031-2.9017c3.9531-0.99895 7.8647-1.8163 8.6925-1.8163 1.1754 0 8.9094-3.3169 14.823-6.3573 0.38672-0.19882 0.70313 0.12184 0.70313 0.71256 0 0.59073-2.9334 2.4328-6.5187 4.0934-5.8173 2.6945-6.303 3.1169-4.5138 3.9259 1.1027 0.49861 2.1756 1.4421 2.3841 2.0967 0.30537 0.95831-0.13936 0.96203-2.2831 0.0191-1.4643-0.64408-2.9365-1.5581-3.2716-2.0312-0.35499-0.50111-4.0723-0.0423-8.9062 1.0994-4.5633 1.0778-12.938 2.4711-18.609 3.0963-5.6719 0.6252-10.713 1.493-11.203 1.9284-0.51735 0.45985-7e-3 0.79164 1.2184 0.79164 2.5673 0 6.835 2.118 8.633 4.2844 2.8156 3.3926 12.914 8.6044 17.001 8.7745 0.87287 0.0364 3.0231-0.78125 4.7783-1.8168zm18.478-6.6653c0-0.51563-0.42188-0.67677-0.9375-0.3581-0.51563 0.31867-0.9375 1.0013-0.9375 1.5169 0 0.51563 0.42187 0.67677 0.9375 0.3581 0.51562-0.31867 0.9375-1.0013 0.9375-1.5169zm-66.251-4.6703c2.8454-0.0895 2.8717-0.125 0.62645-0.84405-1.2891-0.41283-1.7656-0.79266-1.0589-0.84405 2.5928-0.18859-8.8365-12.744-15.377-16.891-4.1767-2.6488-4.5769-2.7162-13.11-2.2071-7.6503 0.45642-9.4123 0.26223-13.474-1.4849-2.6449-1.1378-6.8344-2.0506-9.6549-2.1035-2.7404-0.0514-6.0371-0.46424-7.3262-0.91742-1.5473-0.54397 0.52347-0.69686 6.0938-0.44992 5.1659 0.22901 10.437 1.0929 13.594 2.228 3.7313 1.3416 6.5288 1.7167 10.123 1.3573l4.9667-0.49661-2.6229-1.5854c-1.4426-0.87197-8.1917-3.3538-14.998-5.5151-6.8063-2.1614-12.625-4.3334-12.929-4.8268s-2.5409-1.8006-4.9687-2.905c-3.3193-1.5098-6.4376-2.0398-12.571-2.1364-5.5356-0.0872-8.5481-0.54028-9.375-1.41-1.0249-1.0779-0.43657-1.2114 3.7034-0.84042 5.1011 0.45716 6.2898-0.36061 3.0469-2.0962-1.0312-0.55191-1.875-1.6214-1.875-2.3767 0-1.8749 0.43784-1.7468 3.3943 0.9931 1.4043 1.3015 3.6409 2.5964 4.9702 2.8775 4.437 0.9384 10.809 3.4966 15.303 6.1443 2.447 1.4415 7.0876 3.2902 10.312 4.1082 7.0999 1.8011 15.719 4.909 17.336 6.2511 1.9737 1.638 1.3599 0.13657-2.5667-6.2788-2.0625-3.3697-3.75-6.3706-3.75-6.6687s-0.78209-1.6617-1.738-3.0304c-0.95589-1.3686-3.7473-6.2854-6.203-10.926-5.2735-9.9652-6.5423-11.56-10.541-13.253-2.8462-1.2047-5.66-4.6366-4.6389-5.6577 0.25781-0.25782 0.93965 0.41113 1.5152 1.4865 1.5595 2.9139 3.1344 2.4055 2.6555-0.8572-0.22703-1.5469-0.10911-2.8125 0.26204-2.8125 0.92917 0 1.8129 2.5202 1.8129 5.1698 0 1.3618 0.69862 2.4256 1.8285 2.7842 1.8808 0.59695 3.2071 2.4959 8.5225 12.202 8.6942 15.876 13.85 24.47 15.507 25.845 0.73151 0.6071 1.33 1.6789 1.33 2.3818s2.4797 2.5297 5.5105 4.0597c3.4139 1.7234 7.3758 4.8496 10.413 8.2166l4.9025 5.4349-2.8769-5.625c-1.5823-3.0938-3.4756-8.2061-4.2073-11.361-1.3659-5.8885-4.7554-12.618-8.9957-17.859-4.0198-4.9687-8.4962-11.24-8.4962-11.902 0-2.2104-7.402-11.223-10.902-13.274-4.6068-2.6998-5.6683-5.0578-1.2479-2.7719l2.8504 1.474-2.3975-4.7312c-1.3186-2.6022-2.8122-4.7312-3.3192-4.7312s-0.92171-0.42188-0.92171-0.9375c0-0.51563 0.40902-0.9375 0.90893-0.9375 1.0123 0 9.5292 12.284 12.897 18.601 2.8478 5.3419 8.061 13.282 8.4591 12.884 0.17252-0.17252-0.12271-3.003-0.65606-6.29s-0.97291-8.1702-0.9768-10.852c-0.0041-2.8634-0.49069-5.1884-1.179-5.634-0.64453-0.41731-2.411-2.1258-3.9254-3.7966-3.0322-3.3453-1.7343-4.2444 1.483-1.0272l2.0107 2.0107-0.6223-2.4794c-0.34226-1.3637-0.25991-2.4794 0.183-2.4794 1.3286 0 2.9121 6.4853 3.8914 15.938 0.50753 4.8984 1.6119 11.227 2.4542 14.062 1.6702 5.6236 5.4522 13.607 6.8573 14.476 0.48576 0.30021 1.1667 1.8368 1.5133 3.4146 0.34655 1.5778 0.77584 2.723 0.95399 2.5449 0.47077-0.47077-1.0805-13.004-2.8194-22.779-0.82554-4.6406-1.8591-11.289-2.2969-14.774-0.43773-3.4852-1.2477-6.8812-1.7999-7.5465-0.55219-0.66535-1.2888-2.9911-1.637-5.1684-0.34816-2.1772-0.99947-4.1851-1.4474-4.4619-0.4479-0.27681-0.82082-1.8495-0.82871-3.4948-0.02445-5.0943-1.0636-5.8578-5.5365-4.0681-4.7993 1.9203-7.4716 1.9658-8.1726 0.13905-1.8805-4.9006-26.95 5.0887-29.237 11.65-0.50074 1.4364-0.58335 3.1409-0.18359 3.7877 0.84722 1.3708 0.15735 4.7185-0.97236 4.7185-0.42506 0-1.0336-0.42188-1.3522-0.9375-1.2111-1.9596-4.8492-0.70853-9.1476 3.1457-3.5675 3.1989-4.7255 5.0197-5.7864 9.0986-1.1734 4.5114-1.1595 5.2846 0.12064 6.7051 0.79586 0.88315 1.2002 2.249 0.89845 3.0352-0.47296 1.2325-1.001 1.1626-3.8313-0.5073-2.0321-1.199-4.0133-1.705-5.2004-1.3282-2.1311 0.6764-4.6842 4.9824-4.0341 6.8039 0.23003 0.64454-0.030212 1.1719-0.57833 1.1719-1.1324 0-4.7847 6.7141-4.7847 8.7958 0 1.5205 7.2246 8.0792 8.8995 8.0792 0.58413 0 3.3164 1.0876 6.0718 2.4168s7.2364 2.7792 9.9578 3.2221c5.856 0.95308 22.162 5.9978 26.165 8.0946 1.5469 0.81039 5.286 2.2683 8.3091 3.2398s8.9294 3.5058 13.125 5.6318c7.015 3.5546 15.884 5.8306 19.189 4.9246 0.6867-0.18822 2.5851-0.38427 4.2188-0.43566zm-41.074-33.965c-0.787-1.2011-2.0696-4.3344-2.8501-6.9629-1.6673-5.6144-8.6213-13.258-15.808-17.375-2.5112-1.4387-4.3237-2.8579-4.0278-3.1538 0.29588-0.29588 1.9778 0.35192 3.7377 1.4396l3.1997 1.9775-0.39941-2.5737c-0.38344-2.4708-0.34072-2.501 1.0683-0.75391 0.80727 1.0009 1.4678 2.5545 1.4678 3.4524s0.82485 1.8944 1.833 2.2144c2.7763 0.88117 9.952 11.018 11.14 15.737 0.57761 2.2939 1.6918 4.7032 2.4759 5.354 0.78415 0.65078 1.4257 1.5535 1.4257 2.006 0 1.576-1.8416 0.80768-3.2627-1.3611zm-15.019-40.004c-0.31867-0.51563-0.13263-0.9375 0.41342-0.9375 0.54606 0 0.99283 0.42187 0.99283 0.9375 0 0.51562-0.18604 0.9375-0.41342 0.9375s-0.67415-0.42188-0.99283-0.9375zm127.97 72.073c0-2.4957-0.20731-2.7552-1.4062-1.7602-0.77344 0.6419-1.4062 1.9592-1.4062 2.9273 0 0.96812 0.63281 1.7602 1.4062 1.7602 0.94975 0 1.4062-0.95025 1.4062-2.9273zm37.678-5.7761c-3.8937-4.7404-7.944-14.896-11.485-28.797-1.2664-4.9717-1.0419-13.736 0.44287-17.29 0.72789-1.7421 3.6826-5.5455 6.5659-8.452 4.5739-4.6106 5.821-5.353 9.7791-5.8218 4.0556-0.48032 4.6517-0.85548 5.6216-3.5376 1.5287-4.2277 1.3543-8.1852-0.67788-15.378-4.3415-15.366-5.1534-20.299-4.9792-30.249 0.12199-6.9679 0.73658-11.708 2.0518-15.825 1.0327-3.2327 1.8777-6.3763 1.8777-6.9857s0.84375-2.8544 1.875-4.9888c2.4002-4.9679 2.3582-5.4412-0.32664-3.682-6.2966 4.1257-18.099 10.074-23.66 11.925l-6.2948 2.0948 0.58228 13.236c0.32025 7.2799 1.2194 20.619 1.9982 29.642 1.4864 17.224 1.8986 25.108 2.9162 55.781 0.34212 10.312 0.74236 20.227 0.88945 22.031 0.14707 1.8047 0.31022 4.0195 0.36253 4.9219 0.069 1.1905 0.93112 1.6602 3.142 1.712 1.6758 0.0392 4.5234 0.611 6.3281 1.2706 3.3242 1.215 4.7011 0.47466 2.9906-1.6078zm15.339-95.013c0.23571-13.854 0.66411-26.666 0.95199-28.471 0.83357-5.2256 4.0877-16.071 6.0475-20.156 0.98955-2.0625 2.0852-5.0156 2.4348-6.5625 0.34961-1.5469 1.6179-4.9219 2.8184-7.5l2.1828-4.6875-3.2209 3.75c-3.1813 3.7039-11.611 17.855-12.829 21.538-2.1594 6.526-4.4803 16.082-5.5275 22.759-1.386 8.8363-0.43506 17.323 3.4681 30.952 1.2205 4.2617 2.2191 9.289 2.2191 11.172 0 1.8828 0.23096 3.1924 0.51324 2.9101 0.28228-0.28229 0.7061-11.849 0.94182-25.703zm7.1538 15.911c5.7503-6.3887 18.056-41.206 19.916-56.346 0.33318-2.7133 0.84077-5.6664 1.128-6.5625 0.34017-1.0613-0.13151-0.82763-1.3531 0.67026-1.6712 2.0492-2.1447 2.1768-4.3501 1.1719-3.7007-1.6862-4.0385-1.5183-7.1632 3.5599-1.8647 3.0305-3.529 4.6875-4.7083 4.6875-2.517 0-3.0369-1.9573-1.916-7.2129 0.52576-2.4651 0.80895-4.629 0.62933-4.8086-0.69633-0.69633-2.2851 3.5156-4.5419 12.041-2.1188 8.0039-2.4052 11.262-2.8823 32.793-0.39083 17.637-0.26786 23.046 0.46887 20.625 0.54924-1.8047 1.3875-3.682 1.8627-4.1719 0.47526-0.48984 0.86411-1.9367 0.86411-3.2152s0.81787-4.8855 1.8175-8.0156c0.99961-3.1301 2.5314-8.2223 3.4041-11.316 0.87262-3.0938 2.151-7.3939 2.8408-9.5559s1.9501-8.0683 2.8007-13.125c1.4917-8.8682 3.1054-14.143 3.171-10.366 0.10977 6.3157-4.1669 24.1-12.118 50.391-1.4814 4.8984-2.9351 10.383-3.2305 12.188-0.52559 3.2111-0.512 3.2279 0.63532 0.78803 0.64481-1.3713 1.8713-3.2697 2.7255-4.2188zm72.458-7.8193c-3.1879-24.691-9.1504-49.058-14.408-58.882-1.3297-2.4846-5.5728-1.6314-6.7057 1.3484-1.4003 3.683-5.0453 2.9275-8.5072-1.7633l-2.9406-3.9844 0.52439 4.6875c0.28841 2.5781 0.82737 5.5312 1.1977 6.5625 0.49083 1.3669 0.38561 1.612-0.38825 0.90456-0.91141-0.8332-3.0064-8.8944-3.2101-12.352-0.0367-0.62404-1.2621-1.5513-2.7231-2.0606s-2.6562-1.3698-2.6562-1.9122c0-1.6959-1.5582-1.0749-1.6418 0.65435-0.20922 4.3285 2.8693 23.176 5.0056 30.646 4.2296 14.79 8.641 21.122 23.955 34.389 3.0216 2.6177 5.4938 4.3207 5.4938 3.7845 0-0.53622-0.43897-1.2462-0.97549-1.5778-0.97452-0.60229-4.5196-5.6763-7.7856-11.143-0.95143-1.5926-2.4807-3.7394-3.3985-4.7707-1.9918-2.2382-3.7779-5.5613-3.7779-7.0289 0-0.58211 1.8984 1.7146 4.2188 5.1037 2.3203 3.3892 4.2188 6.3497 4.2188 6.5789 0 0.9239 9.4225 13.346 12.115 15.972 1.5865 1.5472 2.8846 3.4105 2.8846 4.1406 0 0.73011 0.17448 1.1517 0.38773 0.93685s-0.1842-4.8203-0.88323-10.234zm-3.1805 1.3281c0.045-1.0921 0.26713-1.3143 0.5664-0.56641 0.27081 0.67675 0.23751 1.4854-0.074 1.7969-0.31152 0.31152-0.5331-0.2422-0.4924-1.2305zm-1.949-4.6647c0-0.80387 0.42187-1.2008 0.9375-0.88217 0.51562 0.31867 0.9375 0.97639 0.9375 1.4616s-0.42188 0.88217-0.9375 0.88217c-0.51563 0-0.9375-0.65771-0.9375-1.4616zm-2.8141-11.299c-0.54536-1.4895-1.1767-3.2355-1.4031-3.88-0.22633-0.64453-0.0356-1.1719 0.42387-1.1719 1.0153 0 3.2605 6.4703 2.5067 7.2241-0.29477 0.29478-0.98215-0.6827-1.5275-2.1722zm-3.1076-9.1604c-0.35244-0.91844-0.61406-2.3737-0.58137-3.2338 0.0394-1.0358 0.36498-0.79962 0.96427 0.69948 0.49767 1.2449 0.75928 2.7001 0.58137 3.2338-0.1779 0.53373-0.61183 0.21898-0.96427-0.69947zm-1.8589-5.9073c-0.25759-0.42103-1.7981-5.1952-3.4233-10.609-1.6252-5.4141-3.3257-11.004-3.7788-12.422-0.48457-1.5163-0.47551-2.5781 0.022-2.5781 0.46522 0 1.5236 2.4258 2.352 5.3906 0.82836 2.9648 2.5071 8.751 3.7306 12.858 1.9943 6.6948 2.4146 9.513 1.0976 7.3605zm-14.719-3.1092c0-1.0312 0.16174-1.875 0.35941-1.875s0.58005 0.84375 0.84973 1.875 0.10794 1.875-0.35941 1.875-0.84973-0.84375-0.84973-1.875zm-2.214-7.0312c-0.29679-0.77344-0.17613-1.4062 0.26815-1.4062s1.0506 0.63281 1.3474 1.4062c0.29679 0.77344 0.17613 1.4062-0.26816 1.4062-0.44427 0-1.0506-0.63281-1.3474-1.4062zm-36.355 45.044c5.3353-4.6302 10.409-14.365 15.023-28.823 5.4026-16.931 7.1267-27.389 6.7586-40.998l-0.0869-3.2139-2.7333 3.6659c-1.5033 2.0162-2.5311 3.9931-2.2838 4.3932 1.5874 2.5684-8.9396 45.483-12.007 48.947-0.43374 0.48985-0.78862 1.5612-0.78862 2.3807 0 1.7372-6.0454 13.679-8.3019 16.4-1.4776 1.7814-1.4637 1.8028 0.33317 0.51323 1.0312-0.74008 2.8703-2.2094 4.0868-3.2651zm70.041-13.216c2.2206-13.489 1.3803-28.145-2.255-39.329-6.5377-20.112-15.956-35.021-24.763-39.2-3.243-1.5389-8.8055-2.2568-6.6894-0.86329 0.57526 0.37882 1.9467 2.4656 3.0476 4.6372 1.5743 3.1055 2.7521 4.1562 5.5166 4.9216 4.5885 1.2704 5.2469 1.7601 7.6122 5.6612 2.146 3.5394 2.6189 8.3775 0.9792 10.017-0.73137 0.73137-0.63565 1.7721 0.34057 3.7031 2.4551 4.8561 7.0657 20.318 9.0475 30.342 1.0704 5.4141 2.3491 11.575 2.8414 13.692 0.49233 2.1164 1.1835 6.6625 1.5359 10.102 0.35243 3.44 0.77799 6.1173 0.94568 5.9496 0.1677-0.16769 0.99597-4.5028 1.8406-9.6337zm-111.25-37.376c3.8184-1.3251 10.568-4.3828 15-6.7949 4.4316-2.4121 9.1858-4.9613 10.565-5.6648 1.3791-0.70347 3.8541-3.6898 5.5-6.6362 1.6459-2.9465 3.6816-6.1569 4.5238-7.1342 1.4462-1.6784 1.4266-1.7222-0.35427-0.78996-1.037 0.54289-2.7245 1.9227-3.75 3.0662-1.8376 2.049-14.853 11.22-15.924 11.22-0.30266 0-1.456 0.84375-2.5629 1.875-1.1069 1.0312-2.3549 1.875-2.7733 1.875-2.0774 0 0.0292-1.9031 7.783-7.0312 4.6778-3.0938 10.681-7.4807 13.34-9.7488 2.6593-2.2681 6.9444-5.728 9.5225-7.6886 2.5781-1.9607 5.7422-4.4632 7.0312-5.5613l2.3438-1.9964-4.5875 0.54488c-2.5454 0.30235-8.4994 2.4226-13.376 4.7632-4.8334 2.32-9.0972 4.2186-9.475 4.219-0.37783 3.8e-4 -4.2729 2.1424-8.6557 4.76-12.113 7.2346-32.812 16.992-32.812 15.468 0-0.46897 13.526-7.0923 18.325-8.9729 1.0551-0.41353 5.816-3.1153 10.58-6.0039 4.7638-2.8886 8.9089-5.2521 9.2114-5.2521s4.9981-2.1887 10.435-4.8637c9.0118-4.4342 10.578-4.9001 17.735-5.2758 4.3177-0.22662 7.6143-0.64811 7.3258-0.93664-1.8532-1.8532-25.36-1.6567-34.646 0.28969-7.9477 1.6659-18.793 5.5742-21.227 7.6493-0.81404 0.69414-1.7165 1.2621-2.0054 1.2621-0.28894 0-3.4131 1.6875-6.9426 3.75-7.1114 4.1557-10.219 5.062-4.8524 1.4151 9.5274-6.4741 21.155-12.142 29.812-14.532 2.3203-0.64055 8.6475-1.6561 14.06-2.2567l9.8416-1.0921-4.6252-3.1822c-4.1321-2.843-5.4367-3.2231-12.237-3.5654-7.5241-0.37881-14.504 0.92509-21.571 4.0295-1.5469 0.67953-4.7933 2.1097-7.2142 3.1783-2.4209 1.0685-4.6748 1.9428-5.0087 1.9428-1.4763 0-9.8897 7.569-15.902 14.306-3.6094 4.0444-7.2941 8.0951-8.1883 9.0014-1.3891 1.408-1.5151 2.5676-0.86531 7.9651 0.45054 3.7424 0.40817 6.5349-0.10393 6.8514-0.47544 0.29384-2.1234-0.39652-3.6621-1.5341-2.4389-1.8032-3.1448-1.9246-5.5048-0.94705-1.4889 0.61673-3.2074 1.724-3.8187 2.4607-0.94463 1.1382-0.52694 1.2458 2.7814 0.71682 2.498-0.39945 3.893-0.26827 3.893 0.36607 0 0.54371 0.73828 1.1815 1.6406 1.4173 0.90235 0.23581 0.29444 0.47769-1.3509 0.5375-3.3619 0.12221-4.5993 1.2988-2.8575 2.7172 2.3799 1.938 11.876 2.9127 25.068 2.5728 11.597-0.29877 14.614-0.70409 20.536-2.7594zm-23.818-1.4844c-2.565-0.65268-2.4412-0.72416 1.4062-0.81222 2.3203-0.0531 4.8516 0.31238 5.625 0.81222 1.0693 0.69106 0.73243 0.88566-1.4062 0.81222-1.5469-0.0531-4.0781-0.41861-5.625-0.81222zm-9.375-0.9375c-2.0625-0.36928-2.9062-0.77799-1.875-0.90824 3.0552-0.38586 6.4992 0.0711 7.4531 0.98887 0.99421 0.95653 0.14604 0.94426-5.5781-0.0806zm26.25-1.0415c3.0938-0.98546 7.6699-2.6602 10.169-3.7216 4.95-2.1022 7.1211-1.8333 2.8086 0.34786-4.3834 2.217-14.241 5.3594-16.497 5.2591-1.1581-0.0515 0.42561-0.8999 3.5194-1.8854zm-23.438-4.5835c0.31868-0.51563 1.7147-0.90785 3.1022-0.8716 2.2526 0.0588 2.322 0.15216 0.64779 0.8716-2.6046 1.1192-4.4417 1.1192-3.75 0zm7.5-1.875c0.31868-0.51563 1.0013-0.9375 1.5169-0.9375 0.51563 0 0.67678 0.42187 0.3581 0.9375-0.31868 0.51562-1.0013 0.9375-1.5169 0.9375-0.51563 0-0.67678-0.42188-0.3581-0.9375zm-6.6309-9.8639c1.9266-1.4576 3.0032-1.2259 1.982 0.42651-0.33988 0.54993-1.3313 0.98645-2.2033 0.97006-1.3919-0.0262-1.3649-0.1966 0.22127-1.3966zm4.7559-2.3236c0.31868-0.51563 0.76545-0.9375 0.99283-0.9375s0.41342 0.42187 0.41342 0.9375c0 0.51562-0.44678 0.9375-0.99283 0.9375-0.54606 0-0.7321-0.42188-0.41342-0.9375zm67.002 15.37c2.9537-4.113 3.269-4.291 6.646-3.751l3.5452 0.5669 4.1697-7.7334c4.4845-8.3172 6.3763-15.357 3.8684-14.394-0.87919 0.33738-1.6734-0.21206-2.1435-1.4828-0.6864-1.8556-0.99993-1.6458-3.8775 2.5937-2.7943 4.1169-5.6264 7.9274-8.4798 11.409-1.0764 1.3135-2.7614 1.5707-2.7614 0.42151 0-0.41269 2.1918-3.2095 4.8706-6.215 4.0041-4.4925 4.4641-5.3357 2.5855-4.7394-2.0439 0.64871-2.1501 0.56255-1.0058-0.81621 0.70362-0.84781 1.9804-1.5415 2.8374-1.5415s2.3416-1.3264 3.2992-2.9474l1.7411-2.9474-2.7108 0.67669c-7.3444 1.8333-13.647 11.171-14.911 22.093-0.0895 0.77344-0.48116 4.043-0.87028 7.2656-0.38913 3.2226-0.52666 5.8594-0.30564 5.8594 0.22104 0 1.7973-1.943 3.5028-4.3179zm0.1035-8.4165c0.045-1.0921 0.26713-1.3143 0.5664-0.56641 0.27081 0.67675 0.23751 1.4854-0.074 1.7969-0.31153 0.31152-0.5331-0.2422-0.4924-1.2305zm7.8947-7.8906c0.31868-0.51563 0.76545-0.9375 0.99283-0.9375s0.41342 0.42187 0.41342 0.9375c0 0.51562-0.44678 0.9375-0.99283 0.9375-0.54606 0-0.73209-0.42188-0.41342-0.9375zm-95.169 11.842c-0.58055-0.61223-9.3627 5.5385-9.3627 6.5573 0 0.10457 2.2803-1.1449 5.0672-2.7766 2.787-1.6317 4.72-3.333 4.2955-3.7807zm5.2955-0.99885c-1.745-2.6632-1.9641-3.7204-0.59574-2.8747 1.4659 0.90596 1.101-0.17135-0.6517-1.924-0.87407-0.87407-1.9396-3.7519-2.3678-6.3951-0.74379-4.5911-1.0051-7.8477-2.0782-25.9-0.51167-8.6073-3.6691-26.166-5.7824-32.155-1.5318-4.3415-1.5398-4.4073-0.54109-4.4073 2.6122 0 7.5054 25.321 8.6056 44.531 0.88649 15.479 1.6925 22.031 2.7101 22.031 0.98689 0 2.7401-6.6968 3.4361-13.125 0.83536-7.7151 2.4663-10.883 2.0918-4.0625-0.19589 3.5667 0.0182 4.6075 0.81192 3.9476 1.8386-1.5286 4.8448-10.34 5.9987-17.583 1.4998-9.4137 0.394-27.311-2.0167-32.641-0.97827-2.1631-1.7787-4.1444-1.7787-4.4029s-1.4474-2.9183-3.2165-5.9108c-2.1633-3.6592-4.6234-6.3159-7.5128-8.1132-2.363-1.4698-4.9714-3.5792-5.7966-4.6875-1.4046-1.8865-1.4669-1.8954-0.97569-0.14018 0.96622 3.453 4.8595 14.05 5.571 15.163 1.6816 2.6316 8.2356 24.419 7.9865 26.55-0.18321 1.5676-0.8106 0.23375-1.8854-4.0086-0.88596-3.4969-2.22-7.7157-2.9644-9.375-0.74448-1.6594-2.0558-5.2269-2.914-7.9278-0.85821-2.701-1.95-5.1516-2.4262-5.446-0.4762-0.29431-0.8674-1.4594-0.86933-2.5892-3e-3 -1.7812-0.25026-1.6493-1.8612 0.99283-1.6431 2.6948-2.7718 3.4454-4.8103 3.1985-0.3197-0.0387-0.84648 1.8645-1.1706 4.2294-0.32414 2.3649-1.5117 5.7922-2.639 7.6162-1.7286 2.7969-2.0299 4.5845-1.9237 11.411 0.0693 4.4521 0.58096 9.2916 1.1371 10.754 0.94133 2.4759 0.66457 4.293-0.4796 3.1488-0.86876-0.86877-2.4924-12.26-2.4787-17.39 7e-3 -2.707-0.36438-4.9219-0.82578-4.9219-2.0459 0-4.0533-4.8774-4.6303-11.25-0.26642-2.943-2.7866 7.2338-2.8001 11.307-0.0184 5.5166 4.7593 26.302 7.3553 32 1.103 2.4209 2.0054 4.6211 2.0054 4.8893 0 1.9436 14.574 21.178 16.046 21.178 0.48132 0 1.311 1.1463 1.8436 2.5474 1.1407 3.0003 2.8119 5.1883 3.4644 4.5358 0.25418-0.25418-0.22782-1.5152-1.0711-2.8022zm-8.4082-11.468c-0.34375-0.34375-0.625-1.0609-0.625-1.5938 0-0.58744 0.43666-0.53209 1.1094 0.14062 0.61016 0.61016 0.89141 1.3274 0.62501 1.5938-0.26641 0.26641-0.76563 0.20313-1.1094-0.14062zm-1.875-3.75c-0.34375-0.34375-0.61218-1.293-0.59649-2.1094 0.0234-1.219 0.20635-1.1785 1.0234 0.22657 1.0095 1.736 0.71682 3.0266-0.42694 1.8828zm-3.8513-8.2944c-1.626-3.8914-1.9272-6.0308-0.65162-4.6275 1.0903 1.1995 3.0551 7.1822 2.5308 7.7065-0.22993 0.22993-1.0756-1.1556-1.8792-3.079zm-2.8274-6.9533c-0.29666-0.48-0.15483-1.1104 0.31518-1.4009 0.47-0.29047 1.0965 0.10225 1.3921 0.87272 0.58284 1.5189-0.82571 1.9546-1.7073 0.52815zm21.047-2.6429c-4e-3 -1.9336-0.22528-6.4688-0.49247-10.078-0.3729-5.0373-0.2588-6.0435 0.49096-4.3294 1.4063 3.2151 2.2182 17.923 0.98938 17.923-0.53966 0-0.9842-1.582-0.98787-3.5156zm-21.868-2.7344c-0.34375-0.34375-0.625-1.0609-0.625-1.5938 0-0.58744 0.43666-0.53209 1.1094 0.14062 0.61016 0.61016 0.89141 1.3274 0.62501 1.5938-0.26641 0.26641-0.76563 0.20313-1.1094-0.14062zm145.15 31.562c1.7603 0 3.6634-0.74109 4.6214-1.7997 1.549-1.7116 1.5381-2.0046-0.22259-5.9849-1.6301-3.6851-2.4262-4.3761-6.663-5.7834-3.9412-1.309-5.1444-2.2504-6.6508-5.2031-2.8843-5.6537-8.1578-8.1693-12.008-5.728-1.6004 1.0147 4.1733 6.0963 6.0562 5.3303 0.70124-0.28527 1.9078-0.77475 2.6812-1.0877s1.4062-0.0915 1.4062 0.49218c0 0.58369-1.2724 1.3157-2.8275 1.6268-2.3295 0.4659-2.6305 0.80291-1.7089 1.9134 0.61524 0.74133 2.415 2.0117 3.9994 2.8231 2.8693 1.4694 4.2454 2.8631 4.2727 4.3275 7e-3 0.42354-0.64859 0.10714-1.4589-0.70312-1.9036-1.9036-2.3398-1.8607-1.7021 0.1674 0.29265 0.93075-0.3624 0.52509-1.5139-0.9375-1.1164-1.418-2.825-2.5781-3.7971-2.5781-1.074 0-1.5821-0.48293-1.295-1.231 0.6164-1.6063-2.594-4.4992-4.0171-3.6197-2.5516 1.577 1.9893 12.351 5.2057 12.351 1.702 0 3.1149 1.151 8.0808 6.5827 2.7034 2.957 2.7906 2.9817 3.6589 1.0357 0.63845-1.4308 1.7341-1.9934 3.8822-1.9934zm-108.24-34.348c-0.56552-5.0854-1.4272-9.3833-1.9148-9.5509-0.48763-0.16758-1.1786-0.37851-1.5356-0.46875-0.35694-0.0902-0.80395 1.9453-0.99337 4.5234-0.81351 11.073-3.1923 19.183-7.5314 25.678-3.7337 5.5882-2.312 4.7554 5.4401-3.1867l7.5633-7.7486-1.0282-9.2462zm78.629 3.1757c-1.5413-3.2226-3.1537-6.506-3.583-7.2964-0.42935-0.79037-1.0911-2.8997-1.4705-4.6875-0.37944-1.7878-1.5549-4.8137-2.6122-6.7244-1.9516-3.5268-3.2746-4.1423-10.061-4.6808-2.8677-0.22752-3.2548-6e-3 -3.0718 1.7596 0.48622 4.689 5.2566 12.492 10.602 17.341 7.1995 6.5318 11.532 10.084 12.344 10.119 0.36047 0.0157-0.6057-2.6083-2.147-5.831zm64.773 2.9558c13.138-1.8656 26.858-7.0764 34.537-13.117 4.2763-3.3637 11.543-16.087 13.873-24.292 2.4373-8.5819 2.592-10.382 0.56427-6.5625-3.6474 6.8701-6.7083 10.936-11.646 15.469-5.6857 5.2198-14.973 12.039-21.391 15.707-9.4628 5.4081-31.596 11.481-38.29 10.506-1.8859-0.27466-6.382 0.0865-9.9914 0.8027l-6.5625 1.3021 5.625 0.67807c3.0938 0.37295 5.9813 0.76458 6.4168 0.87029 1.9699 0.47819 20.526-0.46415 26.864-1.3643zm-135.19-7.6459 0.27477-6.1109-3.4131-0.39846-3.4131-0.39846 0.60949 3.8068c0.33521 2.0937 0.85726 5.612 1.1601 7.8184 0.52617 3.8336 0.63837 3.9536 2.5288 2.7026 1.618-1.0706 2.0282-2.4219 2.253-7.42zm80.28 5.0599c1.7351-3.3553 1.9146-8.2539 0.58911-16.073-0.8155-4.8105-0.76106-7.1302 0.25849-11.016 1.1048-4.2103 1.1016-4.9219-0.0221-4.9219-2.2125 0-5.853 4.7348-7.2453 9.4229-0.96653 3.2546-1.11 6.0454-0.53465 10.403 1.9373 14.674 3.8941 18.102 6.9545 12.184zm-22.608-3.1823c-6.3884-6.0214-10.875-14.641-10.432-20.041 0.33024-4.0258-0.28522-3.8676 10.007-2.5731 5.7995 0.7294 7.5304 2.7355 10.008 11.599 1.6181 5.7889 4.3031 12.386 4.8276 11.862 0.18969-0.18969-0.3183-2.8307-1.1289-5.8689-1.4832-5.5595-2.9582-12.02-7.4627-32.687-1.3457-6.1741-2.3009-12.502-2.1228-14.062 0.51704-4.529 0.9221-2.8772 7.442 30.347l0.99279 5.0591 1.8843-5.7471c1.6292-4.969 2.4293-6.0665 5.9095-8.106 4.8207-2.8251 7.9101-3.0793 7.9101-0.65094 0 0.9394-0.68742 3.7255-1.5276 6.1913-1.5212 4.4645-1.5118 5.225 0.24736 20.036l0.58991 4.9667 1.8633-3.064c1.0248-1.6852 2.408-4.9749 3.0737-7.3104 1.8728-6.5706 3.4902-25.848 2.8049-33.431-0.33917-3.7529-0.77685-8.7891-0.97262-11.192-0.19918-2.4443-1.1001-5.2005-2.0456-6.2583-0.9293-1.0397-3.4371-3.8038-5.573-6.1426l-3.8833-4.2524-7.4954 6.801c-4.3887 3.982-10.216 8.1547-14.06 10.067-5.5689 2.7707-6.6525 3.7063-7.145 6.1684-1.2699 6.3495-1.6247 15.452-0.74955 19.227 0.95191 4.1069-0.10206 5.6307-1.2969 1.875-0.8832-2.776-0.85139-16.246 0.0479-20.297 0.63808-2.8744 0.53603-3.1141-1.0384-2.4396-4.8315 2.0699-16.975 6.051-18.621 6.105-1.5371 0.0503-1.1993 0.64381 1.875 3.2935 2.0625 1.7777 4.0116 3.2384 4.3313 3.246 0.31971 7e-3 1.1023-1.8469 1.739-4.1212 0.77221-2.758 1.7818-4.2984 3.0317-4.6252 1.5386-0.40235 1.7882-0.12374 1.3947 1.557-0.26357 1.1259-1.2131 5.2111-2.1101 9.0783-1.8745 8.0817-2.19 20.165-0.56881 21.787 0.5986 0.5986 1.0884 1.7897 1.0884 2.647 0 2.0659 4.9528 8.2183 8.8457 10.988 2.501 1.7795 9.4116 4.3556 12.895 4.8069 0.35585 0.0461-1.7028-2.131-4.5749-4.838zm23.801-36.95c-0.80501-5.8417-2.3202-11.981-3.801-15.4-0.7614-1.7582-2.0524-4.7371-2.8688-6.6197-1.6972-3.9134-1.7942-4.5458-0.69745-4.5458 1.0312 0 2.6772 3.6453 5.2916 11.719 3.6864 11.384 4.6996 16.316 3.5819 17.433-0.72247 0.72247-1.1519-0.0149-1.5063-2.5863zm31.384 39.044c14.282-1.1284 28.909-5.6621 40.149-12.444 4.3828-2.6445 8.5262-5.3527 9.2076-6.0181 0.68136-0.6654 1.651-1.2098 2.1547-1.2098 0.50374 0 3.9551-3.0586 7.6697-6.7969 4.5956-4.6249 7.7868-8.894 9.9866-13.359 1.778-3.6094 4.0379-7.747 5.0219-9.1946s1.593-2.8282 1.3533-3.0679c-0.23969-0.23968-1.4108 0.98716-2.6025 2.7263-1.1917 1.7392-4.1002 4.3853-6.4633 5.8804-2.3631 1.495-4.9325 3.3511-5.7097 4.1245-1.093 1.0878-10.196 6.7384-16.165 10.035-0.38671 0.21355-0.69195 0.047-0.67829-0.37017 0.0137-0.41715 3.5928-2.8678 7.9536-5.446 4.3608-2.5781 7.9356-4.9638 7.9439-5.3015 8e-3 -0.33773 1.8918-1.7138 4.1854-3.058 5.7457-3.3672 6.0803-4.4486 0.75113-2.4276-2.449 0.92876-8.8824 2.6189-14.296 3.7558-9.9012 2.0792-23.386 6.7195-34.688 11.936-5.5567 2.5649-17.321 10.652-26.649 18.32-2.0239 1.6638-5.0398 4.0797-6.7021 5.3688s-3.4734 3.0549-4.0249 3.9241c-0.92864 1.4638-0.74541 1.4793 2.4833 0.21072 1.9173-0.75331 4.1325-1.7272 4.9228-2.1642s6.9074-2.9862 13.594-5.6648 14.055-5.7309 16.376-6.7829c10.006-4.5362 13.967-6.3452 20.029-9.1472 3.5393-1.6359 6.6288-2.7806 6.8656-2.5438 0.48849 0.4885-14.626 7.9298-22.051 10.856-2.6975 1.0632-5.8401 2.5425-6.9835 3.2873-1.1434 0.74476-6.9488 3.2553-12.901 5.579-13.879 5.4185-23.397 9.6932-23.397 10.508 0 0.35284 2.6367 0.35056 5.8594-5e-3 3.2226-0.35561 10.785-1.0357 16.804-1.5113zm-100.39-4.3475c3.3987-1.2182 9.8086-2.5277 14.244-2.9101l8.0647-0.6953-3.0014-4.7525-3.0014-4.7525-6.7586 3.1969c-3.7172 1.7583-8.5656 3.3957-10.774 3.6388-8.2912 0.91241-8.2342 0.87363-8.2342 5.6 0 3.7402 0.21397 4.2091 1.6406 3.5954 0.90235-0.38819 4.4214-1.7025 7.8201-2.9206zm98.233-16.422c5.2869-4.1943 14.171-9.7249 17.129-10.664 1.1971-0.37993 5.1368-2.0369 8.7551-3.6821 9.1365-4.1544 16.589-6.668 25.094-8.4631 3.9961-0.84346 7.2656-1.7794 7.2656-2.0799 0-0.96324-23.623 0.52485-31.991 2.0152-7.848 1.3977-15.85 4.9708-22.045 9.8435-1.2752 1.0031-4.0881 2.6937-6.2507 3.7569-4.3954 2.1609-8.4464 6.6564-12.302 13.652-1.421 2.5781-2.9666 5.0883-3.4348 5.5781-0.46812 0.48985-0.85113 1.5113-0.85113 2.2699 0 0.75861-0.73828 2.2177-1.6406 3.2424-1.4391 1.6342 2.5312-1.3956 20.271-15.469zm-72.434 8.4794c-0.76115-1.7396-1.9185-5.1412-2.5718-7.5592l-1.1879-4.3962-1.5587 2.5212c-1.397 2.2596-1.415 2.813-0.17385 5.3337 1.4589 2.9628 5.9491 8.1905 6.5333 7.6063 0.1886-0.18859-0.27986-1.7662-1.041-3.5058zm-30.287-0.8411c11.345-1.6403 25.965-10.313 25.965-15.403 0-0.71332 0.29093-2.0551 0.64652-2.9817 0.38933-1.0146-1.621 0.0967-5.0538 2.7937-3.5912 2.8214-7.5077 4.9552-10.585 5.767-4.4046 1.1619-5.4522 1.1133-10.657-0.49413-7.2836-2.2497-12.531-7.3836-16.402-16.048-2.6602-5.9542-2.9577-6.2611-6.6798-6.89-4.6835-0.79127-5.404-0.2788-3.5786 2.5456 1.8725 2.8973 5.2688 16.898 5.6193 23.165 0.30948 5.5329-0.1595 5.1271 8.7212 7.5466 3.8615 1.0521 4.7195 1.052 12.004-9.4e-4zm-110.91-2.7774c12.868-1.8734 24.499-7.2622 35.156-16.289 5.1724-4.3809 8.9062-8.0057 8.9062-8.6461 0-0.71762-6.0933 1.6174-7.4686 2.8621-2.2911 2.0734-4.609 1.764-5.7632-0.76914-0.81996-1.7996-0.55229-3.0954 1.4594-7.0652 4.4881-8.8568 0.82403-8.7662-23.853 0.58981-17.675 6.7015-52.023 24.58-49.828 25.936 0.49987 0.30894 1.4743 0.34973 2.1653 0.0907 0.69106-0.25909 4.8424-0.87825 9.2252-1.3759 4.3828-0.49768 11.133-1.5002 15-2.2278 3.8672-0.72765 7.1952-1.1764 7.3956-0.99711 0.80604 0.72088-4.5686 2.0694-12.552 3.1493-4.6406 0.62773-10.336 1.5593-12.656 2.07-2.3203 0.51078-5.4844 1.0624-7.0312 1.2258s-3.8672 0.41457-5.1562 0.55822c-1.2891 0.14364 0.39844 0.53741 3.75 0.87504 9.686 0.97576 34.584 0.98374 41.25 0.0132zm-3.2812-9.3013c3.302-1.3757 8.5205-2.2406 7.5-1.243-0.51562 0.50401-2.8359 1.1656-5.1562 1.4703-2.6215 0.34421-3.5088 0.25815-2.3438-0.22726zm8.9062-2.0919c0-0.44412 0.59831-0.8075 1.3296-0.8075 0.73126 0 2.0661-0.28263 2.9663-0.62807 1.0303-0.39534 1.4112-0.26314 1.028 0.35681-0.76776 1.2423-5.3239 2.1654-5.3239 1.0788zm20.625-6.4325c0-0.51563 0.94922-0.93104 2.1094-0.92315 1.7057 0.0116 1.8403 0.18827 0.70312 0.92315-1.8176 1.1746-2.8125 1.1746-2.8125 0zm173.44 7.9555c0.54413-2.428 1.0237-8.0696 1.0658-12.537 0.0617-6.552-0.32715-8.9809-2.0113-12.564-1.1482-2.4428-2.5027-4.6979-3.0099-5.0114-0.60379-0.37316-0.6051 0.0355-4e-3 1.1838 2.0651 3.9436 1.9071 27.088-0.256 37.482-0.52677 2.5312-0.43918 2.4842 1.331-0.71479 1.0422-1.8834 2.34-5.4109 2.8842-7.8389zm-239.08 1.9811c14.252-9.386 56.243-27.73 68.682-30.004 1.9336-0.35347 3.5156-1.0442 3.5156-1.535 0-0.49078 1.5256-2.581 3.3903-4.645l3.3903-3.7527h-2.8634c-5.8218 0-24.23 5.2551-34.268 9.783-3.0289 1.3662-5.736 2.2552-6.0156 1.9755-0.64555-0.64554-0.70201-0.61189 5.429-3.237 16.142-6.9115 33.861-11.239 37.304-9.1111 0.50411 0.31156 2.5473-4e-3 4.5405-0.70103l3.6239-1.2675-7.0312-0.83278c-10.862-1.2865-20.47 0.46352-34.219 6.2332-14.509 6.0885-26.514 14.005-37.173 24.513-3.4933 3.4438-5.9075 6.4095-5.3649 6.5904 0.54261 0.18087-1.1424 2.3202-3.7444 4.7541s-4.5749 4.4252-4.3842 4.4252c0.19072 0 2.5254-1.4348 5.1881-3.1884zm6.7309-9.2631c6.7077-5.5747 10.062-8.0548 16.398-12.126 3.7846-2.4315 6.8811-4.0136 6.8811-3.5156 0 0.49794-0.34232 0.90535-0.76072 0.90535s-1.684 0.86018-2.8125 1.9115c-1.1285 1.0513-2.0582 1.5787-2.0661 1.1719-0.0079-0.40681-0.3243-0.29551-0.70312 0.24734-0.37882 0.54284-2.3107 1.973-4.293 3.1781s-4.5628 3.0813-5.7345 4.1693c-3.6164 3.3582-7.4912 6.1726-8.4738 6.1547-0.51562-9e-3 0.18859-0.95293 1.5649-2.0968zm156.82 6.6792c1.3171-0.60012 2.3948-1.3779 2.3948-1.7284s-1.258-2.9195-2.7955-5.7089-2.8022-6.1264-2.8103-7.4154c-0.0146-2.318-0.092-2.3404-7.0482-2.0353l-7.0334 0.30844v4.965c0 8.0786 0.78688 10.404 4.0762 12.047 3.2143 1.6055 9.1712 1.4105 13.216-0.43266zm11.225-8.2039c1.7742-1.9632 1.7742-2.0109 0-3.4036-0.98968-0.77685-3.3814-2.2553-5.315-3.2854s-3.5156-2.2862-3.5156-2.7914c0-1.1067-0.98394-1.1578-2.5958-0.13469-1.2666 0.80391-0.1938 4.8735 3.1324 11.883l1.5434 3.2524 2.4756-1.7647c1.3616-0.97057 3.2854-2.6607 4.2751-3.7558zm-77.768-3.8378c0-5.8365 1.302-7.681 3.9-5.525 1.0283 0.85339 1.5703 0.39106 2.6937-2.2975 1.6669-3.9894 1.7179-4.8421 0.43366-7.2418-1.0144-1.8955-1.1291-1.8561-5.1536 1.7733-0.75555 0.68136-1.3737 2.4743-1.3737 3.9844 0 1.51-0.42188 2.7455-0.9375 2.7455-0.51563 0-0.95033 2.0039-0.96601 4.4531-0.0217 3.3982-0.24865 4.0756-0.95785 2.8594-0.59754-1.0247-0.62169-3.5352-0.0676-7.0312 0.53553-3.3792 0.52629-5.9698-0.0244-6.8437-0.65155-1.034-0.73345-0.84787-0.30942 0.70313 0.31717 1.1602 0.19316 2.1094-0.27559 2.1094-0.46876 0-1.3409 1.631-1.9382 3.6244-2.5417 8.4835-0.2565 17.51 3.4855 13.768 1.0297-1.0297 1.4911-3.2209 1.4911-7.0819zm46.234 0.93907c-0.21673-5.3577-0.54858-6.5625-1.8076-6.5625-2.1034-1e-4 -2.8383 7.0519-1.099 10.547 2.1873 4.3951 3.19 3.0207 2.9066-3.9843zm-65.432-9.8169c0.49573-1.3039 0.59537-2.3553 0.22141-2.3365-1.1458 0.0576-5.8362 6.7364-5.8362 8.3104 0 1.9597 4.3636-2.6829 5.6148-5.9738zm5.3982 1.9354c4.2003-3.8131 7.7503-9.2995 5.4448-8.4148-0.79582 0.30539-1.1692 1.0046-0.82977 1.5538 0.38958 0.63036 0.0297 0.77318-0.97577 0.38732-1.6174-0.62064-7.0541 4.1059-9.0826 7.8962-1.5879 2.967 1.4958 2.1611 5.4434-1.4226zm52.44 1.1432c-0.29927-0.74787-0.52142-0.52573-0.5664 0.56641-0.0407 0.98827 0.18086 1.542 0.49239 1.2305 0.31152-0.31153 0.34482-1.1201 0.074-1.7969zm27.016-3.0992c23.235-3.3846 41.887-11.916 52.889-24.192l3.2017-3.5724-7.0847 4.7385c-3.8966 2.6062-7.3497 4.7385-7.6736 4.7385-0.32391 0-4.2294 1.7458-8.6789 3.8795-9.7187 4.6606-26.238 9.3185-23.232 6.5505 0.48985-0.45098 3.8868-1.4799 7.5487-2.2864 7.0982-1.5634 19.457-7.0138 29.436-12.982 5.6633-3.387 12.324-8.2847 11.25-8.2721-0.89783 0.0105-8.9416 2.6891-14.062 4.6828-2.8359 1.1041-6.8438 2.5993-8.9062 3.3226-3.8621 1.3545-18.921 4.1672-22.31 4.1672-3.7763 0-0.73001-1.0686 5.57-1.9539 7.3747-1.0363 17.945-3.555 20.018-4.7697 0.7755-0.45454 4.785-2.0892 8.91-3.6326s6.2344-2.6094 4.6875-2.3689-4.6334 0.7126-6.8589 1.0491c-5.0239 0.75962-39.665-0.49947-39.096-1.421 0.22834-0.36945 2.3295-0.57322 4.6693-0.45283 4.1977 0.216 5.8035-0.88367 2.6136-1.7898-0.90235-0.25634-5.9494-1.798-11.216-3.4259-7.7731-2.4028-10.684-2.8788-15.469-2.5292-8.5354 0.62378-12.471 2.3213-14.307 6.1708-0.84306 1.7679-2.9864 4.9883-4.763 7.1564-3.8397 4.6859-4.116 5.9512-0.82924 3.7976 1.3205-0.86523 2.7981-1.4408 3.2835-1.279 0.48541 0.16181-2.5046 2.3569-6.6445 4.878s-7.3825 4.7284-7.2058 4.9051c0.17674 0.17673 1.77-0.10539 3.5405-0.62695s6.1723-1.1073 9.7817-1.3016 11.625-0.65817 17.812-1.0308c6.1875-0.37265 10.982-0.39038 10.654-0.0394-0.32787 0.35099-8.4284 1.227-18.001 1.9467-16.827 1.2651-22.977 2.262-25.934 4.2033-1.0729 0.70449-0.67222 0.9268 1.6899 0.93776 1.7029 7e-3 5.9274 0.6583 9.3878 1.4454 3.4604 0.78705 9.6609 1.7856 13.779 2.219l7.4872 0.78806-6.5625 0.10178c-3.6094 0.056-8.3482-0.31027-10.531-0.81389-6.5798-1.5183-17.221-2.8399-18.166-2.256-0.89429 0.55271 3.6684 4.0608 7.1343 5.4853 2.8113 1.1555 24.763 5.0184 29.062 5.1143 2.0625 0.046 7.9688-0.5309 13.125-1.282zm-6.779-6.7497c0.91215-0.23769 2.1778-0.22206 2.8125 0.0348 0.63471 0.25681-0.1116 0.45129-1.6585 0.43218-1.5469-0.0191-2.0662-0.22922-1.154-0.46691zm5.197 9e-3c0.67675-0.27082 1.4854-0.23752 1.7969 0.074 0.31152 0.31152-0.2422 0.5331-1.2305 0.49239-1.0921-0.045-1.3143-0.26713-0.56641-0.5664zm4.8633-0.2972c0-0.51563 1.1602-0.90785 2.5781-0.8716 2.2845 0.0584 2.3646 0.15764 0.70313 0.8716-2.5607 1.1004-3.2812 1.1004-3.2812 0zm-0.68528-11.9c0.91215-0.23769 2.1778-0.22206 2.8125 0.0348 0.63471 0.25681-0.1116 0.45129-1.6585 0.43218-1.5469-0.0191-2.0662-0.22922-1.154-0.46691zm4.4353-0.28744c0-0.51563 0.42187-0.9375 0.9375-0.9375 0.51562 0 0.9375 0.42187 0.9375 0.9375 0 0.51562-0.42188 0.9375-0.9375 0.9375-0.51563 0-0.9375-0.42188-0.9375-0.9375zm-35.156-6.3085c1.3083-1.339 13.346-5.1803 14.758-4.7096 0.63773 0.21257-1.8809 1.31-5.597 2.4388s-7.5086 2.3173-8.4277 2.6412c-1.1311 0.39869-1.3682 0.27899-0.73361-0.37044zm19.219-4.9415c0-0.51563 0.65771-0.9375 1.4616-0.9375s1.2008 0.42187 0.88217 0.9375c-0.31868 0.51562-0.97639 0.9375-1.4616 0.9375-0.4852 0-0.88217-0.42188-0.88217-0.9375zm5.625-0.9375c1.2891-0.41283 3.3984-0.7862 4.6875-0.8297 1.8427-0.0622 2.0431 0.11519 0.9375 0.8297-0.77344 0.49984-2.8828 0.8732-4.6875 0.8297-3.0065-0.0725-3.085-0.14195-0.9375-0.8297zm-77.131 26.25c1.765-1.3884 1.9859-1.875 0.851-1.875-0.84297 0-1.5327-0.47107-1.5327-1.0468 0-0.59777 0.83419-0.8287 1.9446-0.53832 1.1917 0.31162 2.6161-0.16302 3.679-1.226 0.95396-0.95396 2.7156-2.2757 3.9148-2.9372 2.0736-1.1439 1.9572-1.2361-2.377-1.8831-2.5065-0.37421-5.4596-0.32763-6.5625 0.10349-3.0329 1.1856-8.8327 7.6714-7.3435 8.2121 0.6733 0.24448 1.728 1.0183 2.3438 1.7195 1.5247 1.7364 2.3063 1.6551 5.0825-0.52865zm17.752-5.8594c-0.26007-0.64453-0.47287-0.11718-0.47287 1.1719s0.2128 1.8164 0.47287 1.1719c0.26007-0.64453 0.26007-1.6992 0-2.3438zm15.482-6.0092c9.0282-8.1704 15.413-15.496 17.436-20.006 5.9841-13.34 7.3622-25.437 4.379-38.438-0.88738-3.8672-2.3578-10.828-3.2676-15.469-1.1596-5.9148-1.6816-7.3864-1.746-4.9219-0.10451 3.9989-1.7563 4.8929-1.7321 0.9375 8e-3 -1.418-0.31918-6.7678-0.72857-11.889l-0.74434-9.3105-2.7626 7.2569c-1.5194 3.9913-2.9772 7.0424-3.2393 6.7802-0.26219-0.26218-4e-3 -1.8323 0.57342-3.4891 1.7657-5.0651 0.45084-4.1016-3.1224 2.2879-3.2444 5.8016-6.1484 9.3409-6.1484 7.4936 0-0.47563 0.44444-1.3092 0.98765-1.8524 1.4977-1.4977 8.902-14.191 11.647-19.968 4.4861-9.4388 1.9556-7.6118-4.8283 3.486-5.7506 9.4073-10.879 16.554-17.987 25.063-6.3847 7.6438-12.916 18.427-17.035 28.125-1.9724 4.6437-3.6139 15.619-3.4416 23.012 0.16967 7.2816 0.4501 8.4164 2.8609 11.576 1.47 1.9269 2.8338 3.3424 3.0306 3.1456 0.41097-0.41097-1.1416-5.4826-2.9416-9.6091-2.099-4.812-2.3428-6.6049-1.1244-8.271 1.0858-1.4849 1.5474-1.5003 5.9329-0.19795 5.523 1.6402 6.1604 2.6163 9.4808 14.519 0.60897 2.183 3.7461-3.3292 4.4331-7.7893 0.32918-2.1371 1.8289-8.3154 3.3328-13.729s3.4428-13.008 4.3088-16.875c1.7867-7.9787 3.0551-11.725 3.7383-11.042 0.50541 0.5054-3.3109 17.734-6.2878 28.386-2.2542 8.066-3.7107 14.741-3.3051 15.146 0.16715 0.16714 1.559-2.1177 3.093-5.0774s3.9107-7.4907 5.2816-10.069c1.3709-2.5781 3.5423-7.6406 4.8253-11.25s2.3558-5.6369 2.384-4.5057c0.0645 2.5894-5.2582 15.797-9.4347 23.41-1.7437 3.1787-2.9257 6.025-2.6267 6.3249s2.813-0.1285 5.5867-0.95218c4.9506-1.4702 5.0737-1.4596 6.7219 0.5758 2.3692 2.9258 2.0885 5.134-0.89919 7.0746-1.418 0.92101-3.6328 2.6774-4.9219 3.903s-4.1367 3.7338-6.3281 5.5736-3.9844 3.7236-3.9844 4.1862c0 1.069 6.4303-1.5864 8.603-3.5527zm-12.898-18.749c0.19594-4.2068 0.82631-8.4255 1.4008-9.375 0.80415-1.329 0.90937-0.32376 0.45717 4.3675-1.0008 10.383-2.2674 13.796-1.858 5.0075zm15.545-1.7854c0-1.0854 5.8613-12.633 6.6641-13.129 0.45977-0.28415 0.83594-0.28283 0.83594 3e-3 0 1.3286-6.0983 13.654-6.7557 13.654-0.40939 0-0.74434-0.23752-0.74434-0.52782zm8.4375-0.61451c0-0.68913 0.55012-2.0851 1.2225-3.1022 0.67237-1.0171 2.3972-4.9078 3.8328-8.6461 1.4357-3.7383 3.0006-6.7969 3.4776-6.7969s0.18211 1.582-0.65526 3.5156-1.8514 4.7812-2.2534 6.3281c-1.4173 5.4537-5.6242 11.962-5.6242 8.7014zm-31.875-8.4472c0-4.1482 6.1928-22.968 7.2198-21.941 0.22272 0.22272-0.88875 4.5437-2.4699 9.6022s-2.8749 10.796-2.8749 12.75c0 1.9541-0.42188 3.5529-0.9375 3.5529-0.51563 0-0.9375-1.784-0.9375-3.9645zm-5.9256 0.44886c-0.92754-1.5859 0.98689-12.422 2.1946-12.422 0.49736 0 0.58057 1.3082 0.19378 3.0469-0.37279 1.6758-0.67865 4.6289-0.67969 6.5625-2e-3 3.2649-0.73665 4.4745-1.7087 2.8125zm16.653-6.9342c0.48897-4.6336 3.2314-12.466 4.071-11.626 0.52149 0.5215-2.1582 10.829-3.6674 14.107-0.61405 1.3337-0.73056 0.6175-0.40357-2.4811zm20.21 0.82843c0-1.5115 3.1552-9.1286 3.7812-9.1286 0.95929 0-1.7291 8.2174-2.9315 8.9605-0.46736 0.28885-0.84975 0.36449-0.84975 0.16811zm9.9957-8.6598c0.30647-2.0625 0.91217-4.3828 1.346-5.1562 1.4037-2.5026 0.88659 3.0166-0.571 6.0938l-1.3322 2.8125 0.55721-3.75zm-43.672-1.0156c0.045-1.0921 0.26713-1.3143 0.5664-0.56641 0.27081 0.67675 0.23751 1.4854-0.074 1.7969-0.31153 0.31152-0.5331-0.2422-0.4924-1.2305zm17.27-5.0781c0.31868-0.51563 0.76545-0.9375 0.99283-0.9375s0.41342 0.42187 0.41342 0.9375c0 0.51562-0.44678 0.9375-0.99283 0.9375-0.54606 0-0.7321-0.42188-0.41342-0.9375zm1.4062-3.1492c0-1.9661 1.0114-4.3508 1.8453-4.3508 0.93365 0 0.0419 4.5693-1.0197 5.2254-0.45406 0.28063-0.82556-0.11298-0.82556-0.87468zm13.125-2.4758c0-1.0312 0.38238-1.875 0.84973-1.875s0.62909 0.84375 0.35941 1.875-0.65206 1.875-0.84973 1.875-0.35941-0.84375-0.35941-1.875zm-10.261-6.3281c0.51816-1.418 1.1505-3.1658 1.4051-3.8842 0.25466-0.71833 0.68873-1.0803 0.96461-0.80445 0.55954 0.55955-2.0419 7.2668-2.8184 7.2668-0.27136 0-0.0695-1.1602 0.44873-2.5781zm12.23-4.6322c0.0514-0.93278 0.43122-2.7506 0.84405-4.0397 0.67421-2.1052 0.76011-1.9916 0.84405 1.1165 0.0514 1.9032-0.32843 3.721-0.84405 4.0397-0.51563 0.31868-0.89544-0.18377-0.84405-1.1165zm-7.5934-5.2114c0-0.84157 0.44994-1.8082 0.99987-2.1481 1.6078-0.99368 1.7656-0.10382 0.32973 1.8598-1.112 1.5207-1.3296 1.5679-1.3296 0.28824zm1.875-4.4533c0-0.51563 0.44677-0.9375 0.99283-0.9375s0.7321 0.42187 0.41342 0.9375c-0.31868 0.51562-0.76545 0.9375-0.99283 0.9375s-0.41342-0.42188-0.41342-0.9375zm6.5625-4.6875c0-0.51563 0.42187-0.9375 0.9375-0.9375 0.51562 0 0.9375 0.42187 0.9375 0.9375 0 0.51562-0.42188 0.9375-0.9375 0.9375-0.51563 0-0.9375-0.42188-0.9375-0.9375zm-22.521 77.181c0.0497-2.619 5.0313-6.8921 9.6256-8.2564 4.8933-1.4532 7.4423-1.22 3.4159 0.31249-8.3536 3.1793-9.1924 3.7955-11.579 8.5061-1.3257 2.6161-1.9681 4.7566-1.4276 4.7566s1.2256-0.63289 1.5224-1.4064c0.56143-1.4631 10.277-9.4239 15.69-12.857 0.74253-0.47085 0.61909-1.1056-0.41645-2.1414-1.3376-1.3379-2.0216-1.2769-7.5 0.66921-5.6755 2.0162-6.1802 2.4415-8.6253 7.2698-1.4284 2.8206-3.0104 5.5417-3.5156 6.0469-0.50521 0.50521-0.90917 1.3615-0.8977 1.9029 0.028 1.3259 3.6818-3.4065 3.7083-4.8031zm-10.68-5.0168-1.4132-3.2583-0.0367 3.4546c-0.0202 1.9 0.47113 4.6422 1.0918 6.0938l1.1285 2.6392 0.32138-2.8355c0.17676-1.5595-0.31455-4.3017-1.0918-6.0938zm3.5486-2.7895c-0.63462-2.3203-1.2889-5.2176-1.4539-6.4383-0.21204-1.5686-1.3428-2.6338-3.8557-3.6319-4.3142-1.7136-5-1.2132-3.3735 2.4614 0.94199 2.1281 1.5365 2.569 2.4462 1.814 0.87795-0.72863 1.2028-0.65068 1.2056 0.28933 2e-3 0.70766 1.0568 3.3621 2.3438 5.8987 1.2869 2.5366 2.3954 5.9116 2.4632 7.5l0.12342 2.888 0.62735-3.2812c0.34722-1.8161 0.11213-5.165-0.52651-7.5zm-23.052 4.2248c0.14544-0.12235-1.1202-0.74553-2.8125-1.3849-9.496-3.5875-12.831-5.2367-16.322-8.0721-2.1284-1.7287-5.0498-4.1063-6.492-5.2836-4.6273-3.7773-10.142-9.5659-14.813-15.548-5.172-6.6242-15.551-26.527-15.715-30.135-0.08633-1.9007-0.20485-2.0163-0.5747-0.56067-0.84418 3.3224 1.7386 12.079 6.4254 21.785 4.1367 8.5664 5.6558 10.608 14.671 19.719 5.531 5.5898 12.377 11.547 15.212 13.238 2.8358 1.6913 6.6095 4.1164 8.386 5.389 2.744 1.9657 3.8724 2.2207 7.5 1.695 2.3485-0.34037 4.389-0.71895 4.5344-0.84129zm6.2981-1.0118c-2.2165-1.6725-8.382-6.8689-14.423-12.156-6.8419-5.988-16.11-15.406-21.184-21.526-2.5649-3.0938-4.8838-5.8359-5.1531-6.0938-1.1537-1.1044-6.5834-8.3702-6.5834-8.8096 0-0.26515-1.0811-2.0752-2.4024-4.0222-3.0458-4.4882-9.1885-17.382-11.384-23.895l-1.6827-4.9923-0.28616 4.4635c-0.66253 10.334 4.7614 27.346 12.769 40.048 3.7698 5.9804 16.05 20.644 17.288 20.644 0.46521 0 3.2383 2.0595 6.1624 4.5766 6.2209 5.3551 9.2025 6.9703 19.368 10.492 8.6439 2.9949 10.131 3.2462 7.5111 1.2691zm0.77504-5.8561c-1.4882-2.4135-4.3296-8.1851-6.3142-12.826-5.4289-12.694-6.3427-14.356-10.208-18.564-1.958-2.1315-4.6895-5.3562-6.07-7.1661-3.9085-5.1244-11.979-11.65-26.116-21.118-2.6448-1.7713-6.1253-5.0108-7.7344-7.1988s-2.9256-3.7201-2.9256-3.4045c0 1.6294 7.8023 19.36 9.786 22.238 6.3117 9.1588 8.0514 11.461 14.224 18.824 8.0555 9.6093 20.057 21.116 31.771 30.462 2.5781 2.0568 4.8633 4.1616 5.0781 4.6772 0.21484 0.51562 0.57614 0.38093 0.80289-0.29931 0.22675-0.68025-0.80532-3.2115-2.2935-5.625zm143.15-1.5972c0.99073-1.1938 0.93274-1.331-0.35396-0.8372-0.84637 0.32478-1.5388 0.96725-1.5388 1.4277 0 1.2056 0.54269 1.0363 1.8928-0.59051zm-1.4241-2.1247c1.875-1.3658 1.875-1.3658 0-0.63886-1.0312 0.39982-3.3516 0.93421-5.1562 1.1875-2.6795 0.37609-2.9374 0.58398-1.4062 1.1336 2.107 0.7564 3.8161 0.31826 6.5625-1.6823zm-29.229-1.8377c-0.0916-1.9339-0.19707-5.3795-0.23437-7.6568-0.10025-6.1212-0.67787-4.3499-1.2738 3.9062-0.37755 5.2307-0.21646 7.2658 0.57515 7.2662 0.67534 3.5e-4 1.0353-1.356 0.93301-3.5156zm12.642 2.4501c2.4197-0.58573 4.8142-1.4434 5.3211-1.906 0.57931-0.52865-0.98762-2.5916-4.2188-5.5541-2.8272-2.5922-6.5748-6.0587-8.328-7.7034-4.1286-3.873-2.9423-1.7493 3.4222 6.1258 2.8019 3.467 4.9376 6.774 4.7459 7.349-0.19165 0.57496-2.2163-1.2954-4.4992-4.1563-4.0357-5.0575-5.7688-6.2735-3.9618-2.7796 1.4764 2.8545 2.271 8.7522 1.1793 8.7522-0.53899 0-0.99104-0.73828-1.0046-1.6406-0.0135-0.90234-0.82313-3.3281-1.7991-5.3906l-1.7745-3.75-0.0759 5.8594-0.0759 5.8594h3.3348c1.8342 0 5.3146-0.47923 7.7344-1.065zm-122.59-23.438c1.1889-7.0784 1.1742-7.2074-1.3085-11.444-7.1912-12.271-16.998-17.815-34.148-19.304-5.513-0.47871-10.135-0.75872-10.272-0.62227-0.13646 0.13645 2.1778 1.8812 5.1428 3.8771 13.77 9.2697 24.461 21.984 31.839 37.864l5.4274 11.682 1.0584-7.4472c0.58213-4.0959 1.5995-10.669 2.2609-14.606zm63.467 14.54c1.1544-0.3094 1.9364-0.83098 1.7379-1.1591-1.0948-1.8094 3.5471-22.987 7.0904-32.349 4.4614-11.787 15.356-30.93 21.412-37.623 1.6554-1.8296 1.6228-1.9101-1.3442-3.3239l-3.0407-1.4489-3.801 7.5426c-8.9108 17.682-14.959 30.169-15.46 31.918-0.29544 1.0312-1.6787 4.8281-3.074 8.4375-1.3952 3.6094-3.1096 9.3047-3.8096 12.656s-1.71 7.5675-2.2444 9.3688c-1.8253 6.1527-1.4464 7.0472 2.5335 5.9806zm129.15-23.335c-1.5469-1.2934-4.0781-2.9149-5.625-3.6033-4.9098-2.185-8.9177-6.299-11.893-12.208-4.3818-8.7019-7.9116-13.446-16.183-21.751-7.2719-7.3009-13.394-11.656-18.33-13.04-1.6926-0.47438-0.12627 1.517 5.6383 7.1683 4.3902 4.3038 9.6636 9.8625 11.719 12.353 13.354 16.18 25.854 28.493 32.089 31.607 4.9053 2.4503 5.9022 2.2471 2.5847-0.52681zm-60.767-10.998c-0.32337-6.832-0.23613-11.859 0.19386-11.171 0.58428 0.935 0.92171 0.71622 1.3354-0.86582 0.71581-2.7372-0.395-4.5775-1.3268-2.1981-0.64819 1.6552-0.71561 1.627-0.77577-0.32485-0.0363-1.1757-1.0818-4.5513-2.3234-7.5013s-2.5542-6.9451-2.9168-8.878c-0.36261-1.9329-0.99801-3.5143-1.412-3.5143-0.85526 0-0.30316 6.3438 0.97908 11.25 0.47166 1.8047 1.3177 8.2449 1.8802 14.312 0.56242 6.0667 1.6311 12.487 2.3749 14.267 0.74376 1.78 1.3523 4.0938 1.3523 5.1416s0.2761 1.9051 0.61357 1.9051c0.33746 0 0.34898-5.5898 0.0256-12.422zm-3.7869 6.1545c-0.80505-2.4826-1.9274-9.7118-2.4941-16.065-1.4018-15.715-2.6603-18.378-2.7362-5.7897-0.0583 9.6637 1.4742 17.742 4.6691 24.61 1.8506 3.9787 2.1957 2.2845 0.56124-2.7557zm49.085 2.0748c0-0.24341-2.6367-2.1265-5.8594-4.1846-3.2226-2.0581-6.2812-4.0865-6.7969-4.5076-0.51563-0.42107-2.625-2.0173-4.6875-3.5472s-5.7806-4.8922-8.2624-7.4717c-2.4818-2.5796-6.1502-6.3904-8.152-8.4684-3.6388-3.7773-8.4017-10.25-8.4605-11.498-0.0557-1.1807-3.2062-4.4859-4.8907-5.1308-1.3896-0.532-1.6406-0.0682-1.6406 3.0314 0 4.8784 1.1704 7.7246 6.3003 15.321 4.3496 6.4407 9.9619 11.898 12.235 11.898 0.67846 0 2.371 1.0547 3.7612 2.3438s2.8234 2.3438 3.1848 2.3438c0.57491 0 11.799 4.9748 19.987 8.8585 3.3558 1.5918 3.2812 1.5688 3.2812 1.0114zm-34.339-19.095c-2.9638-3.0235-8.4036-12.341-7.1995-12.332 0.71265 6e-3 2.781 3.0931 5.6484 8.4316 0.69238 1.2891 2.1497 3.0926 3.2385 4.0078 1.0888 0.91525 1.7604 1.8834 1.4923 2.1514-0.26806 0.26805-1.6989-0.74857-3.1797-2.2592zm-9.676-15.53c-0.71521-1.3364-1.0527-2.6775-0.74993-2.9802 0.71722-0.71722 2.7972 3.1693 2.3746 4.437-0.17838 0.53515-0.90951-0.12042-1.6247-1.4568zm-2.291-5.7906c-0.81667-2.1282-0.70124-3.3969 0.25528-2.8058 1.1124 0.68749 2.0052 4.2887 1.0632 4.2887-0.41219 0-1.0055-0.66731-1.3185-1.4829zm47.828 37.032c-2.4057-1.8924-11.589-11.991-22.147-24.355-10.861-12.719-21.768-22.219-24.475-21.317-1.4153 0.47175 8.2846 14.57 15.568 22.627 6.7833 7.5041 15.226 14.413 25.781 21.098 6.4929 4.1119 9.3796 5.178 5.2724 1.9473zm-56.969-8.3868c-0.56592-2.4562-0.73652-9.048-0.41183-15.912 0.32367-6.842 0.18367-12.293-0.33639-13.098-0.48991-0.7585-1.0363-1.1804-1.2142-0.9375-0.66311 0.90532 0.7406 32.365 1.497 33.551 1.3177 2.066 1.4808 0.80358 0.46539-3.6034zm-188.6-11.4c-0.29927-0.74787-0.52142-0.52573-0.56641 0.56641-0.04071 0.98827 0.18087 1.542 0.49239 1.2305 0.31152-0.31153 0.34483-1.1201 0.07402-1.7969zm193.89-24.374c1.2872-1.5298 2.3405-3.3819 2.3405-4.1158s0.42187-1.3343 0.9375-1.3343c0.51562 0 0.9375-0.42187 0.9375-0.9375 0-0.51562-0.65771-0.9375-1.4616-0.9375s-1.2008-0.42187-0.88217-0.9375c0.31868-0.51562-0.0783-0.9375-0.88217-0.9375-2.2747 0-1.775-3.7635 1.3184-9.9284 3.8121-7.5972 7.7924-12.145 13.491-15.413 5.1704-2.9654 4.1107-3.6078-2.4104-1.461-2.2094 0.72734-5.9156 1.562-8.2359 1.8547-3.8202 0.48198-3.5988 0.32196 2.3438-1.694 3.6094-1.2244 6.0352-2.27 5.3906-2.3235-1.672-0.1387-1.4566-1.9722 0.23167-1.9722 2.3032 0 8.8999-6.6012 11.183-11.191 1.1705-2.353 2.9104-6.5986 3.8663-9.4345 1.7492-5.1892 3.2348-7.8898 3.2348-5.8805 0 1.155-4.166 12.883-7.3 20.551l-1.9729 4.8272 2.4206-0.64737c4.9564-1.3255 12.477-18.008 12.477-27.677 0-1.8066-0.46853-6.4348-1.0412-10.285-0.84847-5.7047-1.3107-6.8969-2.4976-6.4415-0.84889 0.32576-1.2133 0.16562-0.8737-0.38391 0.32047-0.51852 0.215-2.1722-0.23437-3.6749-0.72628-2.4287-0.826-2.2043-0.89763 2.0195-0.0833 4.9094-2.3583 14.026-3.7085 14.86-0.42168 0.26061-0.19977-1.7116 0.49311-4.3828 0.69288-2.6711 1.2509-6.3467 1.2399-8.1679-0.0198-3.2959-0.0333-3.2851-2.8944 2.3137-1.581 3.0938-4.685 8.3672-6.8976 11.719-2.2127 3.3516-5.4848 8.4141-7.2715 11.25-5.7607 9.1438-13.442 18.719-17.211 21.457-4.1324 3.0008-9.1185 3.8191-23.83 3.9111-13.33 0.08334-24.945-1.4724-31.689-4.2441-4.685-1.9256-18.487-11.518-20.811-14.463-0.25781-0.32678-3.3593-3.103-6.8923-6.1695-6.4144-5.5673-6.4216-5.5706-5.035-2.2522 1.7606 4.2136 8.9053 13.962 14.69 20.042 9.3076 9.7839 23.377 22.864 26.119 24.282 1.5696 0.81167 6.084 4.5397 10.032 8.2846s8.0926 7.1758 9.2102 7.6243c1.1176 0.44852 2.8758 1.1788 3.9071 1.6229s4.4062 1.2417 7.5 1.7724 7.3125 1.2848 9.375 1.6757c5.9937 1.1359 9.5848 0.3169 12.191-2.7802zm-4.931-35.135c-1.8364-0.74036-0.37501-2.1897 2.2079-2.1897 6.439 0 13.254-6.6655 20.128-19.688 1.7693-3.3516 3.5333-6.2344 3.92-6.4062 0.38672-0.17188 0.70313-0.91016 0.70313-1.6406 0-0.73047 0.3707-1.3281 0.82376-1.3281 0.45307 0 1.348-1.2656 1.9887-2.8125s1.62-2.8125 2.1762-2.8125c0.66016 0 0.62067 0.39059-0.11374 1.125-0.61875 0.61875-1.125 1.8976-1.125 2.8419s-0.63039 1.9588-1.4009 2.2545c-0.77047 0.29566-1.1597 0.92781-0.86489 1.4048s-0.91995 3.0695-2.6994 5.7611c-1.7795 2.6917-4.7706 7.9525-6.6469 11.691-1.8763 3.7383-3.6623 6.7969-3.9688 6.7969-0.30649 0-0.27777-0.72836 0.0639-1.6186 0.45137-1.1762-0.0337-1.0035-1.7747 0.63217-2.8658 2.6923-2.9855 3.1749-0.5997 2.4177 0.98786-0.31353 2.0367-0.18084 2.3307 0.29488 0.29401 0.47572-2.183 1.5476-5.5044 2.3819-6.2497 1.5699-7.6464 1.6994-9.6438 0.8941zm37.271-48.127c0-0.51562 0.42187-0.9375 0.9375-0.9375 0.51562 0 0.9375 0.42188 0.9375 0.9375s-0.42188 0.9375-0.9375 0.9375c-0.51563 0-0.9375-0.42188-0.9375-0.9375zm-18.219 73.99c5.2194-0.94805 10.225-2.814 16.813-6.2676 1.5469-0.81092 4.1528-2.1861 5.791-3.056 1.6382-0.86989 5.4351-3.8095 8.4375-6.5324 3.5178-3.1903 4.4589-4.4014 2.6465-3.4059-2.9242 1.6062-21.246 8.2276-28.594 10.334-5.288 1.5157-8.9324 3.4801-13.125 7.0749l-3.2812 2.8134 2.8747 0.0252c1.5811 0.0139 5.378-0.42947 8.4375-0.98521zm18.759-3.7217c6.1018-2.5931 11.979-6.6745 15.834-10.996 4.8201-5.4032 3.7455-5.9212-1.468-0.70767-3.945 3.9449-6.3038 5.452-18.656 11.919-5.5726 2.9177-2.7493 2.7756 4.2901-0.21588zm-15.216-6.6712c2.1422-0.61186 4.3168-1.4159 4.8324-1.7867 0.51562-0.37085 6.2109-2.4513 12.656-4.6232s11.93-4.1561 12.188-4.4092c0.51562-0.50638-9.2844 0.20151-15.938 1.1512-2.3203 0.33122-7.2655 1.674-10.989 2.984-5.4851 1.9296-7.6655 3.328-11.484 7.3659-2.5926 2.7413-4.7138 5.4383-4.7138 5.9933s2.1496-0.46952 4.777-2.2768c2.6273-1.8073 6.5297-3.7866 8.6719-4.3984zm0.36939-7.9925c6.5819-2.7928 17.398-4.7003 28.369-5.003 5.6618-0.1562 5.8611-0.23136 2.8125-1.0602-8.4529-2.2982-12.249-2.697-17.549-1.8435-14.797 2.3829-20.929 5.9141-25.291 14.562l-2.4067 4.7719 5.2695-4.9656c2.8982-2.7311 6.856-5.6387 8.7951-6.4615zm37.314-5.0415c1.009-1.6326-0.14018-1.9784-1.426-0.42903-0.73946 0.89098-0.81059 1.4289-0.18893 1.4289 0.54833 0 1.275-0.44994 1.6149-0.99987zm-69.236-10.016c-0.23581-0.90234-0.42875-0.16406-0.42875 1.6406 0 1.8047 0.19294 2.543 0.42875 1.6406 0.2358-0.90234 0.2358-2.3789 0-3.2812zm31.753 2.9952c1.7159-1.3747 1.686-1.3942-0.52394-0.34176-2.8697 1.3667-3.4016 1.7997-2.2104 1.7997 0.50302 0 1.7335-0.65609 2.7344-1.458zm-22.872-14.011c3.7157-8.5292 4.0817-9.8262 2.1162-7.5-3.8307 4.5336-7.8956 13.268-8.404 18.059-0.55357 5.216-0.66874 5.4094 6.2878-10.559zm3.52 8.5364c1.7251-1.8485 2.3478-3.7168 2.6084-7.826 0.34084-5.3731 0.33581-5.3849-1.0982-2.5853l-1.4406 2.8125 0.34274-2.5781c0.18851-1.418-0.0206-2.5781-0.46475-2.5781-0.44412 0-0.8075 0.75938-0.8075 1.6875s-0.38488 2.0883-0.85528 2.5781c-0.95598 0.99548-5.7072 12.461-5.7072 13.772 0 1.0672 4.4564-2.1047 7.4223-5.2829zm-9.3305-6.0659c-0.0681-1.2197-2.7127 4.1472-2.7094 5.4983 2e-3 0.77344 0.61977-0.01327 1.373-1.7483 0.75326-1.735 1.3546-3.4225 1.3363-3.75zm41.009-44.413c-0.22424-1.1662-0.41624-0.4328-0.42664 1.6297s0.17307 3.0166 0.40772 2.1203c0.23464-0.89633 0.24316-2.5838 0.0189-3.75zm-146.91 379.05c0-1.0334 5.4315-5.6994 6.6344-5.6994 1.7735 0 0.68501 1.4819-2.92 3.9755-2.0429 1.4131-3.7144 2.1888-3.7144 1.724zm-30.938-7.5872c0-0.52262 0.4217-1.6828 0.9371-2.5781s1.4094-2.8935 1.9868-4.4404c0.6197-1.6605 1.2373-2.3043 1.5077-1.5718 0.57591 1.5599-2.4117 9.5405-3.5716 9.5405-0.47298 0-0.85996-0.4276-0.85996-0.95022z"/>
</svg>
